<?xml version="1.0" encoding="UTF-8" standalone="no"?>
<!-- Created with Inkscape (http://www.inkscape.org/) -->

<svg
   xmlns:dc="http://purl.org/dc/elements/1.1/"
   xmlns:cc="http://creativecommons.org/ns#"
   xmlns:rdf="http://www.w3.org/1999/02/22-rdf-syntax-ns#"
   xmlns:svg="http://www.w3.org/2000/svg"
   xmlns="http://www.w3.org/2000/svg"
   xmlns:xlink="http://www.w3.org/1999/xlink"
   xmlns:sodipodi="http://sodipodi.sourceforge.net/DTD/sodipodi-0.dtd"
   xmlns:inkscape="http://www.inkscape.org/namespaces/inkscape"
   width="720"
   height="720"
   id="svg3291"
   version="1.1"
   inkscape:version="0.48.4 r9939"
   sodipodi:docname="New document 1.2013_10_30_11_17_02.0.svg">
  <title
     id="title3857">Gallium3D example matrix</title>
  <defs
     id="defs3293">
    <linearGradient
       inkscape:collect="always"
       xlink:href="#linearGradient10714-0-8"
       id="linearGradient10924"
       gradientUnits="userSpaceOnUse"
       gradientTransform="translate(-719.68757,639.66232)"
       x1="1719.6876"
       y1="-400.00006"
       x2="1719.6876"
       y2="-370.00006" />
    <linearGradient
       id="linearGradient10714-0-8">
      <stop
         id="stop10716-6-6"
         offset="0"
         style="stop-color:#3465a4;stop-opacity:1;" />
      <stop
         id="stop10718-9-2"
         offset="1"
         style="stop-color:#3465a4;stop-opacity:0;" />
    </linearGradient>
    <linearGradient
       gradientUnits="userSpaceOnUse"
       y2="-350.00006"
       x2="1719.6875"
       y1="-320.00006"
       x1="1719.6875"
       id="linearGradient10728-6-9"
       xlink:href="#linearGradient10722-5-7"
       inkscape:collect="always"
       gradientTransform="translate(-1719.6876,972.36225)" />
    <linearGradient
       id="linearGradient10722-5-7">
      <stop
         id="stop10724-5-4"
         offset="0"
         style="stop-color:#3465a4;stop-opacity:1;" />
      <stop
         id="stop10726-9-2"
         offset="1"
         style="stop-color:#3465a4;stop-opacity:0;" />
    </linearGradient>
    <linearGradient
       gradientUnits="userSpaceOnUse"
       y2="-190.02461"
       x2="1719.6876"
       y1="-220.02461"
       x1="1719.6876"
       id="linearGradient10736-7-2"
       xlink:href="#linearGradient10730-9-3"
       inkscape:collect="always"
       gradientTransform="translate(-1720.0001,942.38679)" />
    <linearGradient
       id="linearGradient10730-9-3">
      <stop
         id="stop10732-5-6"
         offset="0"
         style="stop-color:#3465a4;stop-opacity:1;" />
      <stop
         id="stop10734-1-8"
         offset="1"
         style="stop-color:#3465a4;stop-opacity:0;" />
    </linearGradient>
    <linearGradient
       gradientUnits="userSpaceOnUse"
       y2="-170.05586"
       x2="1719.6876"
       y1="-140.05586"
       x1="1719.6876"
       id="linearGradient10744-3-2"
       xlink:href="#linearGradient10738-9-6"
       inkscape:collect="always"
       gradientTransform="translate(-1720.0001,942.41804)" />
    <linearGradient
       id="linearGradient10738-9-6">
      <stop
         id="stop10740-8-0"
         offset="0"
         style="stop-color:#3465a4;stop-opacity:1;" />
      <stop
         id="stop10742-9-7"
         offset="1"
         style="stop-color:#3465a4;stop-opacity:0;" />
    </linearGradient>
    <linearGradient
       y2="-370.00006"
       x2="1719.6876"
       y1="-400.00006"
       x1="1719.6876"
       gradientTransform="translate(-1720.0001,972.36225)"
       gradientUnits="userSpaceOnUse"
       id="linearGradient3320"
       xlink:href="#linearGradient10714-0-8"
       inkscape:collect="always" />
    <pattern
       patternTransform="matrix(15.945481,9.2061283,-1.8909622,3.2752424,99.9999,680.69922)"
       id="pattern3347"
       xlink:href="#pattern10997"
       inkscape:collect="always" />
    <pattern
       patternTransform="matrix(3.4150637,-5.9150639,3.1698726,1.8301268,100,530.67468)"
       id="pattern10357-6-1"
       xlink:href="#pattern10351-8-4"
       inkscape:collect="always" />
    <pattern
       patternTransform="matrix(3.4150637,-5.9150639,3.1698726,1.8301268,1860,-441.68756)"
       id="pattern10351-8-4"
       xlink:href="#Strips1_1-1-7"
       inkscape:collect="always" />
    <pattern
       inkscape:collect="always"
       patternUnits="userSpaceOnUse"
       width="2"
       height="1"
       patternTransform="translate(0,0) scale(10,10)"
       id="Strips1_1-1-7"
       inkscape:stockid="Stripes 1:1">
      <rect
         style="fill:black;stroke:none"
         x="0"
         y="-0.5"
         width="1"
         height="2"
         id="rect7322-5-6" />
    </pattern>
    <pattern
       inkscape:collect="always"
       xlink:href="#pattern10396-8"
       id="pattern10997"
       patternTransform="matrix(15.945481,9.2061283,-1.8909622,3.2752424,1100,347.99931)" />
    <pattern
       inkscape:collect="always"
       xlink:href="#pattern10359-9-6"
       id="pattern10396-8"
       patternTransform="matrix(15.945481,9.2061283,-1.8909622,3.2752424,1118.4225,173.68007)" />
    <pattern
       patternTransform="matrix(15.945481,9.2061283,-1.8909622,3.2752424,1100,-261.72862)"
       id="pattern10359-9-6"
       xlink:href="#pattern10351-8-4"
       inkscape:collect="always" />
    <pattern
       patternTransform="matrix(3.4150637,-5.9150639,3.1698726,1.8301268,1860,-441.68756)"
       id="pattern3339"
       xlink:href="#Strips1_1-1-7"
       inkscape:collect="always" />
    <linearGradient
       gradientTransform="matrix(1,0,0,-1,-2439.0627,252.36212)"
       y2="-305.00006"
       x2="2439.0627"
       y1="-360.00006"
       x1="2439.0627"
       gradientUnits="userSpaceOnUse"
       id="linearGradient10700-0-0"
       xlink:href="#linearGradient10690-7-8"
       inkscape:collect="always" />
    <linearGradient
       id="linearGradient10690-7-8"
       inkscape:collect="always">
      <stop
         id="stop10692-6-1"
         offset="0"
         style="stop-color:#ffff00;stop-opacity:1;" />
      <stop
         id="stop10694-6-9"
         offset="1"
         style="stop-color:#ffff00;stop-opacity:0;" />
    </linearGradient>
    <linearGradient
       gradientUnits="userSpaceOnUse"
       y2="-305.00006"
       x2="2439.0625"
       y1="-360.00006"
       x1="2439.375"
       id="linearGradient10696-1-8"
       xlink:href="#linearGradient10690-7-8"
       inkscape:collect="always"
       gradientTransform="translate(-2439.0626,972.36223)" />
    <linearGradient
       inkscape:collect="always"
       xlink:href="#linearGradient10702-1-4"
       id="linearGradient11064"
       gradientUnits="userSpaceOnUse"
       gradientTransform="translate(-1439.0625,609.68687)"
       x1="2439.375"
       y1="-180.00006"
       x2="2439.0625"
       y2="-235.02461" />
    <linearGradient
       id="linearGradient10702-1-4"
       inkscape:collect="always">
      <stop
         id="stop10704-8-7"
         offset="0"
         style="stop-color:#ff00ff;stop-opacity:1;" />
      <stop
         id="stop10706-2-6"
         offset="1"
         style="stop-color:#ff00ff;stop-opacity:0;" />
    </linearGradient>
    <linearGradient
       gradientTransform="matrix(1,0,0,-1,-2439.0626,582.38667)"
       y2="-234.97551"
       x2="2439.0625"
       y1="-180.00006"
       x1="2439.375"
       gradientUnits="userSpaceOnUse"
       id="linearGradient10712-3-9"
       xlink:href="#linearGradient10702-1-4"
       inkscape:collect="always" />
    <linearGradient
       y2="-235.02461"
       x2="2439.0625"
       y1="-180.00006"
       x1="2439.375"
       gradientTransform="translate(-2439.0626,942.38679)"
       gradientUnits="userSpaceOnUse"
       id="linearGradient3385"
       xlink:href="#linearGradient10702-1-4"
       inkscape:collect="always" />
  </defs>
  <sodipodi:namedview
     id="base"
     pagecolor="#ffffff"
     bordercolor="#666666"
     borderopacity="1.0"
     inkscape:pageopacity="0.0"
     inkscape:pageshadow="2"
     inkscape:zoom="0.86072811"
     inkscape:cx="447.43894"
     inkscape:cy="344.75668"
     inkscape:document-units="px"
     inkscape:current-layer="layer1"
     showgrid="false"
     inkscape:snap-bbox="true"
     inkscape:bbox-paths="false"
     inkscape:bbox-nodes="true"
     inkscape:window-width="1920"
     inkscape:window-height="1021"
     inkscape:window-x="0"
     inkscape:window-y="27"
     inkscape:window-maximized="1"
     inkscape:object-paths="false"
     inkscape:snap-intersection-paths="false"
     inkscape:object-nodes="true"
     inkscape:snap-smooth-nodes="false"
     inkscape:snap-nodes="true" />
  <metadata
     id="metadata3296">
    <rdf:RDF>
      <cc:Work
         rdf:about="">
        <dc:format>image/svg+xml</dc:format>
        <dc:type
           rdf:resource="http://purl.org/dc/dcmitype/StillImage" />
        <dc:title>Gallium3D example matrix</dc:title>
        <cc:license
           rdf:resource="http://creativecommons.org/licenses/by-sa/3.0/" />
        <dc:date>2013-08-26</dc:date>
        <dc:creator>
          <cc:Agent>
            <dc:title>Shmuel Csaba Otto Traian Xerxes</dc:title>
          </cc:Agent>
        </dc:creator>
        <dc:rights>
          <cc:Agent>
            <dc:title>Shmuel Csaba Otto Traian Xerxes</dc:title>
          </cc:Agent>
        </dc:rights>
        <dc:source>https://commons.wikimedia.org/wiki/File:Gallium3D_example_matrix.svg</dc:source>
        <dc:description>Illustrates the software architecture of Gallium3D by the means of a matrix of its</dc:description>
        <dc:subject>
          <rdf:Bag>
            <rdf:li>Gallium3D</rdf:li>
            <rdf:li>device driver</rdf:li>
            <rdf:li>graphics driver model</rdf:li>
            <rdf:li>radeon</rdf:li>
            <rdf:li>noveau</rdf:li>
            <rdf:li>freedreno</rdf:li>
            <rdf:li>lima</rdf:li>
            <rdf:li>etna_viv</rdf:li>
          </rdf:Bag>
        </dc:subject>
      </cc:Work>
      <cc:License
         rdf:about="http://creativecommons.org/licenses/by-sa/3.0/">
        <cc:permits
           rdf:resource="http://creativecommons.org/ns#Reproduction" />
        <cc:permits
           rdf:resource="http://creativecommons.org/ns#Distribution" />
        <cc:requires
           rdf:resource="http://creativecommons.org/ns#Notice" />
        <cc:requires
           rdf:resource="http://creativecommons.org/ns#Attribution" />
        <cc:permits
           rdf:resource="http://creativecommons.org/ns#DerivativeWorks" />
        <cc:requires
           rdf:resource="http://creativecommons.org/ns#ShareAlike" />
      </cc:License>
    </rdf:RDF>
  </metadata>
  <g
     inkscape:label="boxes"
     inkscape:groupmode="layer"
     id="layer1"
     transform="translate(0,-332.36218)">
    <path
       sodipodi:nodetypes="ccccccccccccccccccc"
       style="font-size:139.41868591px;font-style:normal;font-variant:normal;font-weight:bold;font-stretch:normal;line-height:125%;letter-spacing:0px;word-spacing:0px;fill:#3465a4;fill-opacity:1;stroke:none;display:inline;font-family:Rondalo;-inkscape-font-specification:Rondalo Bold"
       d="m 60.000001,762.36218 c -1.6965,1.99893 -3.0177,3.479 -4.0001,4.4308 -2.9464,2.85558 -5.1448,4.27591 -6.5736,4.27587 -14.2865,4e-5 -25.1468,2.04204 -32.5581,6.13493 C 7.760601,782.24859 2.143001,791.18651 0,804.0364 l 0,56.65156 c 2.143001,12.84989 7.760601,21.78782 16.868201,26.83262 7.4113,4.09291 18.2716,6.1349 32.5581,6.13494 1.4288,-4e-5 3.6272,1.45128 6.5736,4.30685 0.9824,0.95181 2.3036,2.4009 4.0001,4.39981 1.6965,-1.99891 3.0177,-3.448 4.0001,-4.39981 2.9464,-2.85557 5.1448,-4.30689 6.5736,-4.30685 14.2865,-4e-5 25.1468,-2.04203 32.558099,-6.13494 9.1076,-5.0448 14.7252,-13.98273 16.8682,-26.83262 l 0,-56.65156 c -2.143,-12.84989 -7.7606,-21.78781 -16.8682,-26.83262 -7.411299,-4.09289 -18.271599,-6.13489 -32.558099,-6.13493 -1.4288,4e-5 -3.6272,-1.42029 -6.5736,-4.27587 -0.9823,-0.9518 -2.3036,-2.43187 -4.0001,-4.4308 z"
       id="path10025"
       inkscape:connector-curvature="0" />
    <path
       inkscape:connector-curvature="0"
       id="path12154"
       d="m 60,612.36218 c -1.6965,1.99893 -3.0177,3.479 -4.0001,4.4308 -2.9464,2.85558 -5.1448,4.27591 -6.5736,4.27587 -14.2865,4e-5 -25.1468,2.04204 -32.5581,6.13493 C 7.7606,632.24859 2.143,641.18651 0,654.0364 l 0,66.65156 c 2.143,12.84989 7.7606,21.78782 16.8682,26.83262 7.4113,4.09291 18.2716,6.1349 32.5581,6.13494 1.4288,-4e-5 3.6272,1.45128 6.5736,4.30685 0.9824,0.95181 2.3036,2.4009 4.0001,4.39981 1.6965,-1.99891 3.0177,-3.448 4.0001,-4.39981 2.9464,-2.85557 5.1448,-4.30689 6.5736,-4.30685 14.2865,-4e-5 25.1468,-2.04203 32.5581,-6.13494 9.1076,-5.0448 14.7252,-13.98273 16.8682,-26.83262 l 0,-66.65156 c -2.143,-12.84989 -7.7606,-21.78781 -16.8682,-26.83262 -7.4113,-4.09289 -18.2716,-6.13489 -32.5581,-6.13493 -1.4288,4e-5 -3.6272,-1.42029 -6.5736,-4.27587 -0.9823,-0.9518 -2.3036,-2.43187 -4.0001,-4.4308 z"
       style="font-size:139.41868591px;font-style:normal;font-variant:normal;font-weight:bold;font-stretch:normal;line-height:125%;letter-spacing:0px;word-spacing:0px;fill:#3465a4;fill-opacity:1;stroke:none;display:inline;font-family:Rondalo;-inkscape-font-specification:Rondalo Bold"
       sodipodi:nodetypes="ccccccccccccccccccc" />
    <use
       x="0"
       y="0"
       xlink:href="#path10025"
       id="use3783"
       transform="translate(120,0)"
       width="720"
       height="720" />
    <use
       x="0"
       y="0"
       xlink:href="#path10025"
       id="use3785"
       transform="translate(240,0)"
       width="720"
       height="720" />
    <use
       x="0"
       y="0"
       xlink:href="#path10025"
       id="use3787"
       transform="translate(360,0)"
       width="720"
       height="720" />
    <use
       x="0"
       y="0"
       xlink:href="#path10025"
       id="use3789"
       transform="translate(480,0)"
       width="720"
       height="720" />
    <use
       x="0"
       y="0"
       xlink:href="#path10025"
       id="use3791"
       transform="translate(600,0)"
       width="720"
       height="720" />
    <path
       sodipodi:nodetypes="ccccccccccccccccccc"
       style="font-size:139.41868591px;font-style:normal;font-variant:normal;font-weight:bold;font-stretch:normal;line-height:125%;letter-spacing:0px;word-spacing:0px;fill:#3465a4;fill-opacity:1;stroke:none;display:inline;font-family:Rondalo;-inkscape-font-specification:Rondalo Bold"
       d="m 60,462.36218 c -1.6965,1.99893 -3.0177,3.479 -4.0001,4.4308 -2.9464,2.85558 -5.1448,4.27591 -6.5736,4.27587 -14.2865,4e-5 -25.1468,2.04204 -32.5581,6.13493 C 7.7606,482.24859 2.143,491.18651 0,504.0364 l 0,66.65156 c 2.143,12.84989 7.7606,21.78782 16.8682,26.83262 7.4113,4.09291 18.2716,6.1349 32.5581,6.13494 1.4288,-4e-5 3.6272,1.45128 6.5736,4.30685 0.9824,0.95181 2.3036,2.4009 4.0001,4.39981 1.6965,-1.99891 3.0177,-3.448 4.0001,-4.39981 2.9464,-2.85557 5.1448,-4.30689 6.5736,-4.30685 14.2865,-4e-5 25.1468,-2.04203 32.5581,-6.13494 9.1076,-5.0448 14.7252,-13.98273 16.8682,-26.83262 l 0,-66.65156 c -2.143,-12.84989 -7.7606,-21.78781 -16.8682,-26.83262 -7.4113,-4.09289 -18.2716,-6.13489 -32.5581,-6.13493 -1.4288,4e-5 -3.6272,-1.42029 -6.5736,-4.27587 -0.9823,-0.9518 -2.3036,-2.43187 -4.0001,-4.4308 z"
       id="path3793"
       inkscape:connector-curvature="0" />
    <use
       x="0"
       y="0"
       xlink:href="#path12154"
       id="use3795"
       transform="translate(120,0)"
       width="720"
       height="720" />
    <use
       x="0"
       y="0"
       xlink:href="#path12154"
       id="use3797"
       transform="translate(240,0)"
       width="720"
       height="720" />
    <use
       x="0"
       y="0"
       xlink:href="#path12154"
       id="use3799"
       transform="translate(360,0)"
       width="720"
       height="720" />
    <use
       x="0"
       y="0"
       xlink:href="#path12154"
       id="use3801"
       transform="translate(480,0)"
       width="720"
       height="720" />
    <use
       x="0"
       y="0"
       xlink:href="#path12154"
       id="use3803"
       transform="translate(600,0)"
       width="720"
       height="720" />
    <path
       id="path10686"
       d="m 0.312499,652.36218 c 2.3428,-11.94712 7.8594,-20.33551 16.5625,-25.15625 7.4113,-4.0929 18.276001,-6.12496 32.562501,-6.125 1.4288,4e-5 3.6161,-1.45693 6.5625,-4.3125 0.9824,-0.95181 2.3035,-2.40733 4,-4.40625 1.6965,1.99892 3.0176,3.45444 4,4.40625 2.9464,2.85557 5.1337,4.31254 6.5625,4.3125 14.2865,4e-5 25.1512,2.0321 32.5625,6.125 8.7031,4.82074 14.2197,13.20913 16.5625,25.15625 l -119.375001,0 z m 120.000001,0 c 2.3428,-11.94712 7.8594,-20.33551 16.5625,-25.15625 7.4113,-4.0929 18.276,-6.12496 32.5625,-6.125 1.4288,4e-5 3.6161,-1.45693 6.5625,-4.3125 0.9824,-0.95181 2.3035,-2.40733 4,-4.40625 1.6965,1.99892 3.0176,3.45444 4,4.40625 2.9464,2.85557 5.1337,4.31254 6.5625,4.3125 14.2865,4e-5 25.1512,2.0321 32.5625,6.125 8.7031,4.82074 14.2197,13.20913 16.5625,25.15625 l -119.375,0 z m 120,0 c 2.3428,-11.94712 7.8594,-20.33551 16.5625,-25.15625 7.4113,-4.0929 18.276,-6.12496 32.5625,-6.125 1.4288,4e-5 3.6161,-1.45693 6.5625,-4.3125 0.9824,-0.95181 2.3035,-2.40733 4,-4.40625 1.6965,1.99892 3.0176,3.45444 4,4.40625 2.9464,2.85557 5.1337,4.31254 6.5625,4.3125 14.2865,4e-5 25.1512,2.0321 32.5625,6.125 8.7031,4.82074 14.2197,13.20913 16.5625,25.15625 l -119.375,0 z m 120,0 c 2.3428,-11.94712 7.8594,-20.33551 16.5625,-25.15625 7.4113,-4.0929 18.276,-6.12496 32.5625,-6.125 1.4288,4e-5 3.6161,-1.45693 6.5625,-4.3125 0.9824,-0.95181 2.3035,-2.40733 4,-4.40625 1.6965,1.99892 3.0176,3.45444 4,4.40625 2.9464,2.85557 5.1337,4.31254 6.5625,4.3125 14.2865,4e-5 25.1512,2.0321 32.5625,6.125 8.7031,4.82074 14.2197,13.20913 16.5625,25.15625 l -119.375,0 z m 120,0 c 2.3428,-11.94712 7.8594,-20.33551 16.5625,-25.15625 7.4113,-4.0929 18.276,-6.12496 32.5625,-6.125 1.4288,4e-5 3.6161,-1.45693 6.5625,-4.3125 0.9824,-0.95181 2.3035,-2.40733 4,-4.40625 1.6965,1.99892 3.0176,3.45444 4,4.40625 2.9464,2.85557 5.1337,4.31254 6.5625,4.3125 14.2865,4e-5 25.1512,2.0321 32.5625,6.125 8.7031,4.82074 14.2197,13.20913 16.5625,25.15625 l -119.375,0 z m 120,0 c 2.3428,-11.94712 7.8594,-20.33551 16.5625,-25.15625 7.4113,-4.0929 18.276,-6.12496 32.5625,-6.125 1.4288,4e-5 3.6161,-1.45693 6.5625,-4.3125 0.9824,-0.95181 2.3035,-2.40733 4,-4.40625 1.6965,1.99892 3.0176,3.45444 4,4.40625 2.9464,2.85557 5.1337,4.31254 6.5625,4.3125 14.2865,4e-5 25.1512,2.0321 32.5625,6.125 8.7031,4.82074 14.2197,13.20913 16.5625,25.15625 l -119.375,0 z"
       style="fill:url(#linearGradient10696-1-8);fill-opacity:1;fill-rule:nonzero;stroke:none;display:inline"
       inkscape:connector-curvature="0" />
    <use
       x="0"
       y="0"
       xlink:href="#path3793"
       id="use3805"
       transform="translate(120,0)"
       width="720"
       height="720" />
    <use
       x="0"
       y="0"
       xlink:href="#path3793"
       id="use3807"
       transform="translate(240,0)"
       width="720"
       height="720" />
    <use
       x="0"
       y="0"
       xlink:href="#path3793"
       id="use3809"
       transform="translate(360,0)"
       width="720"
       height="720" />
    <use
       x="0"
       y="0"
       xlink:href="#path3793"
       id="use3811"
       transform="translate(480,0)"
       width="720"
       height="720" />
    <use
       x="0"
       y="0"
       xlink:href="#path3793"
       id="use3813"
       transform="translate(600,0)"
       width="720"
       height="720" />
    <path
       inkscape:connector-curvature="0"
       style="fill:url(#linearGradient10700-0-0);fill-opacity:1;fill-rule:nonzero;stroke:none;display:inline"
       d="m 0.312499,572.36218 c 2.3428,11.94712 7.8594,20.33551 16.5625,25.15625 7.4113,4.0929 18.276001,6.12496 32.562501,6.125 1.4288,-4e-5 3.6161,1.45693 6.5625,4.3125 0.9824,0.95181 2.3035,2.40733 4,4.40625 1.6965,-1.99892 3.0176,-3.45444 4,-4.40625 2.9464,-2.85557 5.1337,-4.31254 6.5625,-4.3125 14.2865,-4e-5 25.1512,-2.0321 32.5625,-6.125 8.7031,-4.82074 14.2197,-13.20913 16.5625,-25.15625 l -119.375001,0 z m 120.000001,0 c 2.3428,11.94712 7.8594,20.33551 16.5625,25.15625 7.4113,4.0929 18.276,6.12496 32.5625,6.125 1.4288,-4e-5 3.6161,1.45693 6.5625,4.3125 0.9824,0.95181 2.3035,2.40733 4,4.40625 1.6965,-1.99892 3.0176,-3.45444 4,-4.40625 2.9464,-2.85557 5.1337,-4.31254 6.5625,-4.3125 14.2865,-4e-5 25.1512,-2.0321 32.5625,-6.125 8.7031,-4.82074 14.2197,-13.20913 16.5625,-25.15625 l -119.375,0 z m 120,0 c 2.3428,11.94712 7.8594,20.33551 16.5625,25.15625 7.4113,4.0929 18.276,6.12496 32.5625,6.125 1.4288,-4e-5 3.6161,1.45693 6.5625,4.3125 0.9824,0.95181 2.3035,2.40733 4,4.40625 1.6965,-1.99892 3.0176,-3.45444 4,-4.40625 2.9464,-2.85557 5.1337,-4.31254 6.5625,-4.3125 14.2865,-4e-5 25.1512,-2.0321 32.5625,-6.125 8.7031,-4.82074 14.2197,-13.20913 16.5625,-25.15625 l -119.375,0 z m 120,0 c 2.3428,11.94712 7.8594,20.33551 16.5625,25.15625 7.4113,4.0929 18.276,6.12496 32.5625,6.125 1.4288,-4e-5 3.6161,1.45693 6.5625,4.3125 0.9824,0.95181 2.3035,2.40733 4,4.40625 1.6965,-1.99892 3.0176,-3.45444 4,-4.40625 2.9464,-2.85557 5.1337,-4.31254 6.5625,-4.3125 14.2865,-4e-5 25.1512,-2.0321 32.5625,-6.125 8.7031,-4.82074 14.2197,-13.20913 16.5625,-25.15625 l -119.375,0 z m 120,0 c 2.3428,11.94712 7.8594,20.33551 16.5625,25.15625 7.4113,4.0929 18.276,6.12496 32.5625,6.125 1.4288,-4e-5 3.6161,1.45693 6.5625,4.3125 0.9824,0.95181 2.3035,2.40733 4,4.40625 1.6965,-1.99892 3.0176,-3.45444 4,-4.40625 2.9464,-2.85557 5.1337,-4.31254 6.5625,-4.3125 14.2865,-4e-5 25.1512,-2.0321 32.5625,-6.125 8.7031,-4.82074 14.2197,-13.20913 16.5625,-25.15625 l -119.375,0 z m 120,0 c 2.3428,11.94712 7.8594,20.33551 16.5625,25.15625 7.4113,4.0929 18.276,6.12496 32.5625,6.125 1.4288,-4e-5 3.6161,1.45693 6.5625,4.3125 0.9824,0.95181 2.3035,2.40733 4,4.40625 1.6965,-1.99892 3.0176,-3.45444 4,-4.40625 2.9464,-2.85557 5.1337,-4.31254 6.5625,-4.3125 14.2865,-4e-5 25.1512,-2.0321 32.5625,-6.125 8.7031,-4.82074 14.2197,-13.20913 16.5625,-25.15625 l -119.375,0 z"
       id="path10698" />
    <path
       style="fill:url(#pattern10357-6-1);fill-opacity:1;fill-rule:nonzero;stroke:none;display:inline"
       d="m 0,570.67467 0,1.6875 0.3125,0 C 0.2035,571.80687 0.095,571.24547 0,570.67467 z m 0.3125,1.6875 c 2.3434,11.94801 7.8595,20.33545 16.5625,25.15625 7.4114,4.09291 18.2448,6.12491 32.5312,6.12501 1.4289,-10e-5 3.6474,1.4569 6.5938,4.3125 0.9826,0.9518 2.3036,2.40735 4,4.40625 1.6966,-1.9989 3.0177,-3.45445 4,-4.40625 2.9466,-2.8556 5.1337,-4.3126 6.5625,-4.3125 14.2863,-10e-5 25.1512,-2.0321 32.5625,-6.12501 8.7032,-4.8208 14.2192,-13.20824 16.5625,-25.15625 z m 119.375,0 0.625,0 c -0.109,-0.5553 -0.2175,-1.1167 -0.3125,-1.6875 -0.095,0.5708 -0.2036,1.1322 -0.3125,1.6875 z m 0.625,0 c 2.3434,11.94801 7.8595,20.33545 16.5625,25.15625 7.4114,4.09291 18.2447,6.12491 32.5312,6.12501 1.4289,-10e-5 3.6474,1.4569 6.5938,4.3125 0.9826,0.9518 2.3036,2.40735 4,4.40625 1.6966,-1.9989 3.0177,-3.45445 4,-4.40625 2.9466,-2.8556 5.1337,-4.3126 6.5625,-4.3125 14.2863,-10e-5 25.1512,-2.0321 32.5625,-6.12501 8.7031,-4.8208 14.2192,-13.20824 16.5625,-25.15625 z m 119.375,0 0.625,0 c -0.109,-0.5553 -0.2175,-1.1167 -0.3125,-1.6875 -0.095,0.5708 -0.2036,1.1322 -0.3125,1.6875 z m 0.625,0 c 2.3434,11.94801 7.8596,20.33545 16.5625,25.15625 7.4114,4.09291 18.2447,6.12491 32.5312,6.12501 1.4289,-10e-5 3.6476,1.4569 6.5938,4.3125 0.9825,0.9518 2.3035,2.40735 4,4.40625 1.6967,-1.9989 3.0178,-3.45445 4,-4.40625 2.9465,-2.8556 5.1337,-4.3126 6.5625,-4.3125 14.2864,-10e-5 25.1513,-2.0321 32.5625,-6.12501 8.7031,-4.8208 14.2191,-13.20824 16.5625,-25.15625 z m 119.375,0 0.625,0 c -0.109,-0.5553 -0.2175,-1.1167 -0.3125,-1.6875 -0.095,0.5708 -0.2036,1.1322 -0.3125,1.6875 z m 0.625,0 c 2.3434,11.94801 7.8596,20.33545 16.5625,25.15625 7.4114,4.09291 18.2447,6.12491 32.5312,6.12501 1.4289,-10e-5 3.6476,1.4569 6.5938,4.3125 0.9825,0.9518 2.3035,2.40735 4,4.40625 1.6967,-1.9989 3.0178,-3.45445 4,-4.40625 2.9465,-2.8556 5.1337,-4.3126 6.5625,-4.3125 14.2864,-10e-5 25.1513,-2.0321 32.5625,-6.12501 8.7031,-4.8208 14.2191,-13.20824 16.5625,-25.15625 z m 119.375,0 0.625,0 c -0.109,-0.5553 -0.2175,-1.1167 -0.3125,-1.6875 -0.095,0.5708 -0.2036,1.1322 -0.3125,1.6875 z m 0.625,0 c 2.3434,11.94801 7.8596,20.33545 16.5625,25.15625 7.4114,4.09291 18.2447,6.12491 32.5312,6.12501 1.4289,-10e-5 3.6476,1.4569 6.5938,4.3125 0.9825,0.9518 2.3035,2.40735 4,4.40625 1.6967,-1.9989 3.0178,-3.45445 4,-4.40625 2.9465,-2.8556 5.1337,-4.3126 6.5625,-4.3125 14.2864,-10e-5 25.1513,-2.0321 32.5625,-6.12501 8.7031,-4.8208 14.2191,-13.20824 16.5625,-25.15625 z m 119.375,0 0.625,0 c -0.109,-0.5553 -0.2175,-1.1167 -0.3125,-1.6875 -0.095,0.5708 -0.2036,1.1322 -0.3125,1.6875 z m 0.625,0 c 2.3434,11.94801 7.8596,20.33545 16.5625,25.15625 7.4114,4.09291 18.2447,6.12491 32.5312,6.12501 1.4289,-10e-5 3.6476,1.4569 6.5938,4.3125 0.9825,0.9518 2.3035,2.40735 4,4.40625 1.6967,-1.9989 3.0178,-3.45445 4,-4.40625 2.9465,-2.8556 5.1337,-4.3126 6.5625,-4.3125 14.2864,-10e-5 25.1513,-2.0321 32.5625,-6.12501 8.7031,-4.8208 14.2191,-13.20824 16.5625,-25.15625 z m 119.375,0 0.3125,0 0,-1.6875 c -0.095,0.5708 -0.2036,1.1322 -0.3125,1.6875 z M 660,612.36218 c -1.6965,1.9989 -3.0175,3.4857 -4,4.4375 -2.9463,2.8556 -5.1649,4.28125 -6.5938,4.28125 -14.2864,0 -25.1199,2.0321 -32.5312,6.125 -8.7029,4.82071 -14.2191,13.20826 -16.5625,25.15625 l 119.375,0 c -2.3434,-11.94799 -7.8594,-20.33554 -16.5625,-25.15625 -7.4112,-4.0929 -18.276,-6.125 -32.5625,-6.125 -1.4289,0 -3.616,-1.42565 -6.5625,-4.28125 -0.9823,-0.9518 -2.3033,-2.4386 -4,-4.4375 z m 59.6875,40 c 0.1089,0.5554 0.2175,1.1168 0.3125,1.6875 l 0,-1.6875 z m -119.375,0 -0.625,0 c 0.1089,0.5554 0.2175,1.1168 0.3125,1.6875 0.095,-0.5707 0.2035,-1.1321 0.3125,-1.6875 z m -0.625,0 c -2.3434,-11.94799 -7.8594,-20.33554 -16.5625,-25.15625 -7.4112,-4.0929 -18.276,-6.125 -32.5625,-6.125 -1.4289,0 -3.616,-1.42565 -6.5625,-4.28125 -0.9823,-0.9518 -2.3033,-2.4386 -4,-4.4375 -1.6965,1.9989 -3.0175,3.4857 -4,4.4375 -2.9463,2.8556 -5.1649,4.28125 -6.5938,4.28125 -14.2864,0 -25.1199,2.0321 -32.5312,6.125 -8.7029,4.82071 -14.2191,13.20826 -16.5625,25.15625 z m -119.375,0 -0.625,0 c 0.1089,0.5554 0.2175,1.1168 0.3125,1.6875 0.095,-0.5707 0.2035,-1.1321 0.3125,-1.6875 z m -0.625,0 c -2.3434,-11.94799 -7.8594,-20.33554 -16.5625,-25.15625 -7.4112,-4.0929 -18.276,-6.125 -32.5625,-6.125 -1.4289,0 -3.616,-1.42565 -6.5625,-4.28125 -0.9823,-0.9518 -2.3033,-2.4386 -4,-4.4375 -1.6965,1.9989 -3.0175,3.4857 -4,4.4375 -2.9463,2.8556 -5.1649,4.28125 -6.5938,4.28125 -14.2864,0 -25.1199,2.0321 -32.5312,6.125 -8.7029,4.82071 -14.2191,13.20826 -16.5625,25.15625 z m -119.375,0 -0.625,0 c 0.1089,0.5554 0.2175,1.1168 0.3125,1.6875 0.095,-0.5707 0.2035,-1.1321 0.3125,-1.6875 z m -0.625,0 c -2.3434,-11.94799 -7.8594,-20.33554 -16.5625,-25.15625 -7.4112,-4.0929 -18.276,-6.125 -32.5625,-6.125 -1.4289,0 -3.616,-1.42565 -6.5625,-4.28125 -0.9823,-0.9518 -2.3033,-2.4386 -4,-4.4375 -1.6965,1.9989 -3.0175,3.4857 -4,4.4375 -2.9463,2.8556 -5.1649,4.28125 -6.5938,4.28125 -14.2864,0 -25.1199,2.0321 -32.5312,6.125 -8.7029,4.82071 -14.2191,13.20826 -16.5625,25.15625 z m -119.375,0 -0.625,0 c 0.1089,0.5554 0.2175,1.1168 0.3125,1.6875 0.095,-0.5707 0.2035,-1.1321 0.3125,-1.6875 z m -0.625,0 c -2.3434,-11.94799 -7.8594,-20.33554 -16.5625,-25.15625 -7.4112,-4.0929 -18.276,-6.125 -32.5625,-6.125 -1.4289,0 -3.6161,-1.42565 -6.5625,-4.28125 -0.9821,-0.9518 -2.3034,-2.4386 -4,-4.4375 -1.6964,1.9989 -3.0175,3.4857 -4,4.4375 -2.9463,2.8556 -5.1649,4.28125 -6.5938,4.28125 -14.2864,0 -25.1199,2.0321 -32.5312,6.125 -8.703,4.82071 -14.2191,13.20826 -16.5625,25.15625 z m -119.375,0 -0.625,0 c 0.1089,0.5554 0.2175,1.1168 0.3125,1.6875 0.095,-0.5707 0.2035,-1.1321 0.3125,-1.6875 z m -0.625,0 c -2.3434,-11.94799 -7.8594,-20.33554 -16.5625,-25.15625 -7.4112,-4.0929 -18.276,-6.125 -32.5625,-6.125 -1.4289,0 -3.6161,-1.42565 -6.5625,-4.28125 -0.9821,-0.9518 -2.3034,-2.4386 -4,-4.4375 -1.6964,1.9989 -3.0175,3.4857 -4,4.4375 -2.9463,2.8556 -5.165,4.28125 -6.5938,4.28125 -14.2864,0 -25.1199,2.0321 -32.5312,6.125 -8.703,4.82071 -14.2191,13.20826 -16.5625,25.15625 z m -119.375,0 -0.3125,0 0,1.6875 c 0.095,-0.5707 0.2035,-1.1321 0.3125,-1.6875 z"
       id="path10355"
       inkscape:connector-curvature="0"
       sodipodi:nodetypes="ccccccccccccccccccccccccccccccccccccccccccccccccccccccccccccccccccccccccccccccccccccccccccsccccsccccccccccccscccscccccccccscccscccccccccscccscccccccccscccscccccccccscccsccccccc" />
    <rect
       style="fill:#333333;fill-opacity:1;fill-rule:nonzero;stroke:none;display:inline"
       id="rect9460"
       width="720"
       height="30"
       x="0"
       y="992.36218"
       rx="0"
       ry="0" />
    <rect
       ry="0"
       rx="0"
       y="1022.3622"
       x="0"
       height="30"
       width="720"
       id="rect9462"
       style="fill:#2c5aa0;fill-opacity:1;fill-rule:nonzero;stroke:none;display:inline" />
    <path
       sodipodi:nodetypes="cccccccccccc"
       style="font-size:139.41868591px;font-style:normal;font-variant:normal;font-weight:bold;font-stretch:normal;line-height:125%;letter-spacing:0px;word-spacing:0px;fill:#ff5599;fill-opacity:1;stroke:none;display:inline;font-family:Rondalo;-inkscape-font-specification:Rondalo Bold"
       d="m 59.999998,902.36217 c -1.6965,1.99893 -3.0177,3.479 -4.0001,4.4308 -2.9464,2.85558 -5.1448,4.27591 -6.5736,4.27587 -14.2865,4e-5 -25.1468,2.04204 -32.5581,6.13493 C 7.7606,922.24858 2.143,931.1865 0,944.03639 l 0,38.32579 120,0 0,-38.32579 c -2.143,-12.84989 -7.7606,-21.78781 -16.8682,-26.83262 -7.411302,-4.09289 -18.271602,-6.13489 -32.558102,-6.13493 -1.4288,4e-5 -3.6272,-1.42029 -6.5736,-4.27587 -0.9823,-0.9518 -2.3036,-2.43187 -4.0001,-4.4308 z"
       id="path12186"
       inkscape:connector-curvature="0" />
    <path
       inkscape:connector-curvature="0"
       id="path12062"
       d="m 59.999997,372.36218 c -1.6965,1.99893 -3.0177,3.479 -4.0001,4.4308 -2.9464,2.85558 -5.1448,4.27591 -6.573597,4.27587 -14.2865,4e-5 -25.1468,2.04204 -32.5581,6.13493 C 7.7606,392.24859 2.143,401.18651 0,414.0364 l 0,6.65157 c 2.143,12.84988 7.7606,21.78781 16.8682,26.83261 7.4113,4.09291 18.2716,6.1349 32.5581,6.13494 1.428797,-4e-5 3.627197,1.45128 6.573597,4.30685 0.9824,0.95181 2.3036,2.4009 4.0001,4.39981 1.6965,-1.99891 3.0177,-3.448 4.0001,-4.39981 2.9464,-2.85557 5.1448,-4.30689 6.5736,-4.30685 14.2865,-4e-5 25.1468,-2.04203 32.558103,-6.13494 9.1076,-5.0448 14.7252,-13.98273 16.8682,-26.83261 l -1e-4,-39.61914 c 0,0 -35.139703,4e-5 -49.426203,0 -1.4288,4e-5 -3.6272,-1.42027 -6.5736,-4.27585 -0.9823,-0.9518 -2.3036,-2.43187 -4.0001,-4.4308 z"
       style="font-size:139.41868591px;font-style:normal;font-variant:normal;font-weight:bold;font-stretch:normal;line-height:125%;letter-spacing:0px;word-spacing:0px;fill:#4e9a06;fill-opacity:1;stroke:none;display:inline;font-family:Rondalo;-inkscape-font-specification:Rondalo Bold"
       sodipodi:nodetypes="cccccccccccccccccc" />
    <use
       x="0"
       y="0"
       xlink:href="#path12186"
       id="use3773"
       transform="translate(120,0)"
       width="720"
       height="720" />
    <use
       x="0"
       y="0"
       xlink:href="#path12186"
       id="use3775"
       transform="translate(240,0)"
       width="720"
       height="720" />
    <use
       x="0"
       y="0"
       xlink:href="#path12186"
       id="use3777"
       transform="translate(360,0)"
       width="720"
       height="720" />
    <use
       x="0"
       y="0"
       xlink:href="#path12186"
       id="use3779"
       transform="translate(480,0)"
       width="720"
       height="720" />
    <use
       x="0"
       y="0"
       xlink:href="#path12186"
       id="use3781"
       transform="translate(600,0)"
       width="720"
       height="720" />
    <path
       id="path10684"
       d="m 0.312399,722.38673 c 2.3428,11.94712 7.8594,20.33551 16.5625,25.15625 7.4113,4.0929 18.276001,6.12496 32.562501,6.125 1.4288,-4e-5 3.6161,1.45693 6.5625,4.3125 0.9824,0.95181 2.3035,2.40733 4,4.40625 1.6965,-1.99892 3.0176,-3.45444 4,-4.40625 2.9464,-2.85557 5.1337,-4.31254 6.5625,-4.3125 14.2865,-4e-5 25.1512,-2.0321 32.5625,-6.125 8.7031,-4.82074 14.2197,-13.20913 16.5625,-25.15625 l -119.375001,0 z m 120.000001,0 c 2.3428,11.94712 7.8594,20.33551 16.5625,25.15625 7.4113,4.0929 18.276,6.12496 32.5625,6.125 1.4288,-4e-5 3.6161,1.45693 6.5625,4.3125 0.9824,0.95181 2.3035,2.40733 4,4.40625 1.6965,-1.99892 3.0176,-3.45444 4,-4.40625 2.9464,-2.85557 5.1337,-4.31254 6.5625,-4.3125 14.2865,-4e-5 25.1512,-2.0321 32.5625,-6.125 8.7031,-4.82074 14.2197,-13.20913 16.5625,-25.15625 l -119.375,0 z m 120,0 c 2.3428,11.94712 7.8594,20.33551 16.5625,25.15625 7.4113,4.0929 18.276,6.12496 32.5625,6.125 1.4288,-4e-5 3.6161,1.45693 6.5625,4.3125 0.9824,0.95181 2.3035,2.40733 4,4.40625 1.6965,-1.99892 3.0176,-3.45444 4,-4.40625 2.9464,-2.85557 5.1337,-4.31254 6.5625,-4.3125 14.2865,-4e-5 25.1512,-2.0321 32.5625,-6.125 8.7031,-4.82074 14.2197,-13.20913 16.5625,-25.15625 l -119.375,0 z m 120,0 c 2.3428,11.94712 7.8594,20.33551 16.5625,25.15625 7.4113,4.0929 18.276,6.12496 32.5625,6.125 1.4288,-4e-5 3.6161,1.45693 6.5625,4.3125 0.9824,0.95181 2.3035,2.40733 4,4.40625 1.6965,-1.99892 3.0176,-3.45444 4,-4.40625 2.9464,-2.85557 5.1337,-4.31254 6.5625,-4.3125 14.2865,-4e-5 25.1512,-2.0321 32.5625,-6.125 8.7031,-4.82074 14.2197,-13.20913 16.5625,-25.15625 l -119.375,0 z m 120,0 c 2.3428,11.94712 7.8594,20.33551 16.5625,25.15625 7.4113,4.0929 18.276,6.12496 32.5625,6.125 1.4288,-4e-5 3.6161,1.45693 6.5625,4.3125 0.9824,0.95181 2.3035,2.40733 4,4.40625 1.6965,-1.99892 3.0176,-3.45444 4,-4.40625 2.9464,-2.85557 5.1337,-4.31254 6.5625,-4.3125 14.2865,-4e-5 25.1512,-2.0321 32.5625,-6.125 8.7031,-4.82074 14.2197,-13.20913 16.5625,-25.15625 l -119.375,0 z m 120,0 c 2.3428,11.94712 7.8594,20.33551 16.5625,25.15625 7.4113,4.0929 18.276,6.12496 32.5625,6.125 1.4288,-4e-5 3.6161,1.45693 6.5625,4.3125 0.9824,0.95181 2.3035,2.40733 4,4.40625 1.6965,-1.99892 3.0176,-3.45444 4,-4.40625 2.9464,-2.85557 5.1337,-4.31254 6.5625,-4.3125 14.2865,-4e-5 25.1512,-2.0321 32.5625,-6.125 8.7031,-4.82074 14.2197,-13.20913 16.5625,-25.15625 l -119.375,0 z"
       style="fill:url(#linearGradient3385);fill-opacity:1;fill-rule:nonzero;stroke:none;display:inline"
       inkscape:connector-curvature="0" />
    <path
       id="rect10651"
       d="m 1e-4,572.36218 c 2.3428,11.94712 7.8594,20.33551 16.5625,25.15625 7.4113,4.0929 18.275997,6.12496 32.562497,6.125 1.4288,-4e-5 3.6161,1.45693 6.5625,4.3125 0.9824,0.95181 2.3035,2.40733 4,4.40625 1.6965,-1.99892 3.0176,-3.45444 4,-4.40625 2.9464,-2.85557 5.1337,-4.31254 6.5625,-4.3125 14.2865,-4e-5 25.1512,-2.0321 32.562503,-6.125 8.7031,-4.82074 14.2197,-13.20913 16.5625,-25.15625 l -119.375,0 z m 120,0 c 2.3428,11.94712 7.8594,20.33551 16.5625,25.15625 7.4113,4.0929 18.276,6.12496 32.5625,6.125 1.4288,-4e-5 3.6161,1.45693 6.5625,4.3125 0.9824,0.95181 2.3035,2.40733 4,4.40625 1.6965,-1.99892 3.0176,-3.45444 4,-4.40625 2.9464,-2.85557 5.1337,-4.31254 6.5625,-4.3125 14.2865,-4e-5 25.1512,-2.0321 32.5625,-6.125 8.7031,-4.82074 14.2197,-13.20913 16.5625,-25.15625 l -119.375,0 z m 120,0 c 2.3428,11.94712 7.8594,20.33551 16.5625,25.15625 7.4113,4.0929 18.276,6.12496 32.5625,6.125 1.4288,-4e-5 3.6161,1.45693 6.5625,4.3125 0.9824,0.95181 2.3035,2.40733 4,4.40625 1.6965,-1.99892 3.0176,-3.45444 4,-4.40625 2.9464,-2.85557 5.1337,-4.31254 6.5625,-4.3125 14.2865,-4e-5 25.1512,-2.0321 32.5625,-6.125 8.7031,-4.82074 14.2197,-13.20913 16.5625,-25.15625 l -119.375,0 z m 120,0 c 2.3428,11.94712 7.8594,20.33551 16.5625,25.15625 7.4113,4.0929 18.276,6.12496 32.5625,6.125 1.4288,-4e-5 3.6161,1.45693 6.5625,4.3125 0.9824,0.95181 2.3035,2.40733 4,4.40625 1.6965,-1.99892 3.0176,-3.45444 4,-4.40625 2.9464,-2.85557 5.1337,-4.31254 6.5625,-4.3125 14.2865,-4e-5 25.1512,-2.0321 32.5625,-6.125 8.7031,-4.82074 14.2197,-13.20913 16.5625,-25.15625 l -119.375,0 z m 120,0 c 2.3428,11.94712 7.8594,20.33551 16.5625,25.15625 7.4113,4.0929 18.276,6.12496 32.5625,6.125 1.4288,-4e-5 3.6161,1.45693 6.5625,4.3125 0.9824,0.95181 2.3035,2.40733 4,4.40625 1.6965,-1.99892 3.0176,-3.45444 4,-4.40625 2.9464,-2.85557 5.1337,-4.31254 6.5625,-4.3125 14.2865,-4e-5 25.1512,-2.0321 32.5625,-6.125 8.7031,-4.82074 14.2197,-13.20913 16.5625,-25.15625 l -119.375,0 z m 120,0 c 2.3428,11.94712 7.8594,20.33551 16.5625,25.15625 7.4113,4.0929 18.276,6.12496 32.5625,6.125 1.4288,-4e-5 3.6161,1.45693 6.5625,4.3125 0.9824,0.95181 2.3035,2.40733 4,4.40625 1.6965,-1.99892 3.0176,-3.45444 4,-4.40625 2.9464,-2.85557 5.1337,-4.31254 6.5625,-4.3125 14.2865,-4e-5 25.1512,-2.0321 32.5625,-6.125 8.7031,-4.82074 14.2197,-13.20913 16.5625,-25.15625 l -119.375,0 z"
       style="fill:url(#linearGradient3320);fill-opacity:1;fill-rule:nonzero;stroke:none;display:inline"
       inkscape:connector-curvature="0" />
    <path
       inkscape:connector-curvature="0"
       style="fill:url(#linearGradient10712-3-9);fill-opacity:1;fill-rule:nonzero;stroke:none;display:inline"
       d="m 0.312399,802.38673 c 2.3428,-11.94712 7.8594,-20.33551 16.5625,-25.15625 7.4113,-4.0929 18.276001,-6.12496 32.562501,-6.125 1.4288,4e-5 3.6161,-1.45693 6.5625,-4.3125 0.9824,-0.95181 2.3035,-2.40733 4,-4.40625 1.6965,1.99892 3.0176,3.45444 4,4.40625 2.9464,2.85557 5.1337,4.31254 6.5625,4.3125 14.2865,4e-5 25.1512,2.0321 32.5625,6.125 8.7031,4.82074 14.2197,13.20913 16.5625,25.15625 l -119.375001,0 z m 120.000001,0 c 2.3428,-11.94712 7.8594,-20.33551 16.5625,-25.15625 7.4113,-4.0929 18.276,-6.12496 32.5625,-6.125 1.4288,4e-5 3.6161,-1.45693 6.5625,-4.3125 0.9824,-0.95181 2.3035,-2.40733 4,-4.40625 1.6965,1.99892 3.0176,3.45444 4,4.40625 2.9464,2.85557 5.1337,4.31254 6.5625,4.3125 14.2865,4e-5 25.1512,2.0321 32.5625,6.125 8.7031,4.82074 14.2197,13.20913 16.5625,25.15625 l -119.375,0 z m 120,0 c 2.3428,-11.94712 7.8594,-20.33551 16.5625,-25.15625 7.4113,-4.0929 18.276,-6.12496 32.5625,-6.125 1.4288,4e-5 3.6161,-1.45693 6.5625,-4.3125 0.9824,-0.95181 2.3035,-2.40733 4,-4.40625 1.6965,1.99892 3.0176,3.45444 4,4.40625 2.9464,2.85557 5.1337,4.31254 6.5625,4.3125 14.2865,4e-5 25.1512,2.0321 32.5625,6.125 8.7031,4.82074 14.2197,13.20913 16.5625,25.15625 l -119.375,0 z m 120,0 c 2.3428,-11.94712 7.8594,-20.33551 16.5625,-25.15625 7.4113,-4.0929 18.276,-6.12496 32.5625,-6.125 1.4288,4e-5 3.6161,-1.45693 6.5625,-4.3125 0.9824,-0.95181 2.3035,-2.40733 4,-4.40625 1.6965,1.99892 3.0176,3.45444 4,4.40625 2.9464,2.85557 5.1337,4.31254 6.5625,4.3125 14.2865,4e-5 25.1512,2.0321 32.5625,6.125 8.7031,4.82074 14.2197,13.20913 16.5625,25.15625 l -119.375,0 z m 120,0 c 2.3428,-11.94712 7.8594,-20.33551 16.5625,-25.15625 7.4113,-4.0929 18.276,-6.12496 32.5625,-6.125 1.4288,4e-5 3.6161,-1.45693 6.5625,-4.3125 0.9824,-0.95181 2.3035,-2.40733 4,-4.40625 1.6965,1.99892 3.0176,3.45444 4,4.40625 2.9464,2.85557 5.1337,4.31254 6.5625,4.3125 14.2865,4e-5 25.1512,2.0321 32.5625,6.125 8.7031,4.82074 14.2197,13.20913 16.5625,25.15625 l -119.375,0 z m 120,0 c 2.3428,-11.94712 7.8594,-20.33551 16.5625,-25.15625 7.4113,-4.0929 18.276,-6.12496 32.5625,-6.125 1.4288,4e-5 3.6161,-1.45693 6.5625,-4.3125 0.9824,-0.95181 2.3035,-2.40733 4,-4.40625 1.6965,1.99892 3.0176,3.45444 4,4.40625 2.9464,2.85557 5.1337,4.31254 6.5625,4.3125 14.2865,4e-5 25.1512,2.0321 32.5625,6.125 8.7031,4.82074 14.2197,13.20913 16.5625,25.15625 l -119.375,0 z"
       id="path10710" />
    <path
       sodipodi:nodetypes="ccccccccccccccccccccccccccccccccccccccccccccccccccccccccccccccccccccccccccccccccccccccccccsccccsccccccccccccscccscccccccccscccscccccccccscccscccccccccscccscccccccccscccsccccccc"
       inkscape:connector-curvature="0"
       id="rect10182"
       d="m -1e-4,720.69922 0,1.6875 0.3125,0 c -0.109,-0.5553 -0.2175,-1.1167 -0.3125,-1.6875 z m 0.3125,1.6875 c 2.3434,11.948 7.8595,20.33545 16.5625,25.15625 7.4114,4.0929 18.2448,6.1249 32.5312,6.125 1.4289,-10e-5 3.6474,1.4569 6.5938,4.3125 0.9826,0.9518 2.3036,2.40735 4,4.40625 1.6966,-1.9989 3.0177,-3.45445 4,-4.40625 2.9466,-2.8556 5.1337,-4.3126 6.5625,-4.3125 14.2863,-10e-5 25.1512,-2.0321 32.5625,-6.125 8.7032,-4.8208 14.2192,-13.20825 16.5625,-25.15625 z m 119.375,0 0.625,0 c -0.109,-0.5553 -0.2175,-1.1167 -0.3125,-1.6875 -0.095,0.5708 -0.2036,1.1322 -0.3125,1.6875 z m 0.625,0 c 2.3434,11.948 7.8595,20.33545 16.5625,25.15625 7.4114,4.0929 18.2447,6.1249 32.5312,6.125 1.4289,-10e-5 3.6474,1.4569 6.5938,4.3125 0.9826,0.9518 2.3036,2.40735 4,4.40625 1.6966,-1.9989 3.0177,-3.45445 4,-4.40625 2.9466,-2.8556 5.1337,-4.3126 6.5625,-4.3125 14.2863,-10e-5 25.1512,-2.0321 32.5625,-6.125 8.7031,-4.8208 14.2192,-13.20825 16.5625,-25.15625 z m 119.375,0 0.625,0 c -0.109,-0.5553 -0.2175,-1.1167 -0.3125,-1.6875 -0.095,0.5708 -0.2036,1.1322 -0.3125,1.6875 z m 0.625,0 c 2.3434,11.948 7.8596,20.33545 16.5625,25.15625 7.4114,4.0929 18.2447,6.1249 32.5312,6.125 1.4289,-10e-5 3.6476,1.4569 6.5938,4.3125 0.9825,0.9518 2.3035,2.40735 4,4.40625 1.6967,-1.9989 3.0178,-3.45445 4,-4.40625 2.9465,-2.8556 5.1337,-4.3126 6.5625,-4.3125 14.2864,-10e-5 25.1513,-2.0321 32.5625,-6.125 8.7031,-4.8208 14.2191,-13.20825 16.5625,-25.15625 z m 119.375,0 0.625,0 c -0.109,-0.5553 -0.2175,-1.1167 -0.3125,-1.6875 -0.095,0.5708 -0.2036,1.1322 -0.3125,1.6875 z m 0.625,0 c 2.3434,11.948 7.8596,20.33545 16.5625,25.15625 7.4114,4.0929 18.2447,6.1249 32.5312,6.125 1.4289,-10e-5 3.6476,1.4569 6.5938,4.3125 0.9825,0.9518 2.3035,2.40735 4,4.40625 1.6967,-1.9989 3.0178,-3.45445 4,-4.40625 2.9465,-2.8556 5.1337,-4.3126 6.5625,-4.3125 14.2864,-10e-5 25.1513,-2.0321 32.5625,-6.125 8.7031,-4.8208 14.2191,-13.20825 16.5625,-25.15625 z m 119.375,0 0.625,0 c -0.109,-0.5553 -0.2175,-1.1167 -0.3125,-1.6875 -0.095,0.5708 -0.2036,1.1322 -0.3125,1.6875 z m 0.625,0 c 2.3434,11.948 7.8596,20.33545 16.5625,25.15625 7.4114,4.0929 18.2447,6.1249 32.5312,6.125 1.4289,-10e-5 3.6476,1.4569 6.5938,4.3125 0.9825,0.9518 2.3035,2.40735 4,4.40625 1.6967,-1.9989 3.0178,-3.45445 4,-4.40625 2.9465,-2.8556 5.1337,-4.3126 6.5625,-4.3125 14.2864,-10e-5 25.1513,-2.0321 32.5625,-6.125 8.7031,-4.8208 14.2191,-13.20825 16.5625,-25.15625 z m 119.375,0 0.625,0 c -0.109,-0.5553 -0.2175,-1.1167 -0.3125,-1.6875 -0.095,0.5708 -0.2036,1.1322 -0.3125,1.6875 z m 0.625,0 c 2.3434,11.948 7.8596,20.33545 16.5625,25.15625 7.4114,4.0929 18.2447,6.1249 32.5312,6.125 1.4289,-10e-5 3.6476,1.4569 6.5938,4.3125 0.9825,0.9518 2.3035,2.40735 4,4.40625 1.6967,-1.9989 3.0178,-3.45445 4,-4.40625 2.9465,-2.8556 5.1337,-4.3126 6.5625,-4.3125 14.2864,-10e-5 25.1513,-2.0321 32.5625,-6.125 8.7031,-4.8208 14.2191,-13.20825 16.5625,-25.15625 z m 119.375,0 0.3125,0 0,-1.6875 c -0.095,0.5708 -0.2036,1.1322 -0.3125,1.6875 z m -59.6875,40 c -1.6965,1.9989 -3.0175,3.4857 -4,4.4375 -2.9463,2.8556 -5.1649,4.28125 -6.5938,4.28125 -14.2864,0 -25.1199,2.0321 -32.5312,6.125 -8.7029,4.8207 -14.2191,13.20825 -16.5625,25.15625 l 119.375,0 c -2.3434,-11.948 -7.8594,-20.33555 -16.5625,-25.15625 -7.4112,-4.0929 -18.276,-6.125 -32.5625,-6.125 -1.4289,0 -3.616,-1.42565 -6.5625,-4.28125 -0.9823,-0.9518 -2.3033,-2.4386 -4,-4.4375 z m 59.6875,40 c 0.1089,0.5554 0.2175,1.1168 0.3125,1.6875 l 0,-1.6875 z m -119.375,0 -0.625,0 c 0.1089,0.5554 0.2175,1.1168 0.3125,1.6875 0.095,-0.5707 0.2035,-1.1321 0.3125,-1.6875 z m -0.625,0 c -2.3434,-11.948 -7.8594,-20.33555 -16.5625,-25.15625 -7.4112,-4.0929 -18.276,-6.125 -32.5625,-6.125 -1.4289,0 -3.616,-1.42565 -6.5625,-4.28125 -0.9823,-0.9518 -2.3033,-2.4386 -4,-4.4375 -1.6965,1.9989 -3.0175,3.4857 -4,4.4375 -2.9463,2.8556 -5.1649,4.28125 -6.5938,4.28125 -14.2864,0 -25.1199,2.0321 -32.5312,6.125 -8.7029,4.8207 -14.2191,13.20825 -16.5625,25.15625 z m -119.375,0 -0.625,0 c 0.1089,0.5554 0.2175,1.1168 0.3125,1.6875 0.095,-0.5707 0.2035,-1.1321 0.3125,-1.6875 z m -0.625,0 c -2.3434,-11.948 -7.8594,-20.33555 -16.5625,-25.15625 -7.4112,-4.0929 -18.276,-6.125 -32.5625,-6.125 -1.4289,0 -3.616,-1.42565 -6.5625,-4.28125 -0.9823,-0.9518 -2.3033,-2.4386 -4,-4.4375 -1.6965,1.9989 -3.0175,3.4857 -4,4.4375 -2.9463,2.8556 -5.1649,4.28125 -6.5938,4.28125 -14.2864,0 -25.1199,2.0321 -32.5312,6.125 -8.7029,4.8207 -14.2191,13.20825 -16.5625,25.15625 z m -119.375,0 -0.625,0 c 0.1089,0.5554 0.2175,1.1168 0.3125,1.6875 0.095,-0.5707 0.2035,-1.1321 0.3125,-1.6875 z m -0.625,0 c -2.3434,-11.948 -7.8594,-20.33555 -16.5625,-25.15625 -7.4112,-4.0929 -18.276,-6.125 -32.5625,-6.125 -1.4289,0 -3.616,-1.42565 -6.5625,-4.28125 -0.9823,-0.9518 -2.3033,-2.4386 -4,-4.4375 -1.6965,1.9989 -3.0175,3.4857 -4,4.4375 -2.9463,2.8556 -5.1649,4.28125 -6.5938,4.28125 -14.2864,0 -25.1199,2.0321 -32.5312,6.125 -8.7029,4.8207 -14.2191,13.20825 -16.5625,25.15625 z m -119.375,0 -0.625,0 c 0.1089,0.5554 0.2175,1.1168 0.3125,1.6875 0.095,-0.5707 0.2035,-1.1321 0.3125,-1.6875 z m -0.625,0 c -2.3434,-11.948 -7.8594,-20.33555 -16.5625,-25.15625 -7.4112,-4.0929 -18.276,-6.125 -32.5625,-6.125 -1.4289,0 -3.6161,-1.42565 -6.5625,-4.28125 -0.9821,-0.9518 -2.3034,-2.4386 -4,-4.4375 -1.6964,1.9989 -3.0175,3.4857 -4,4.4375 -2.9463,2.8556 -5.1649,4.28125 -6.5938,4.28125 -14.2864,0 -25.1199,2.0321 -32.5312,6.125 -8.703,4.8207 -14.2191,13.20825 -16.5625,25.15625 z m -119.375,0 -0.625,0 c 0.1089,0.5554 0.2175,1.1168 0.3125,1.6875 0.095,-0.5707 0.2035,-1.1321 0.3125,-1.6875 z m -0.625,0 c -2.3434,-11.948 -7.8594,-20.33555 -16.5625,-25.15625 -7.4112,-4.0929 -18.276,-6.125 -32.5625,-6.125 -1.4289,0 -3.6161,-1.42565 -6.5625,-4.28125 -0.9821,-0.9518 -2.3034,-2.4386 -4,-4.4375 -1.6964,1.9989 -3.0175,3.4857 -4,4.4375 -2.9463,2.8556 -5.165,4.28125 -6.5938,4.28125 -14.2864,0 -25.1199,2.0321 -32.5312,6.125 -8.703,4.8207 -14.2191,13.20825 -16.5625,25.15625 z m -119.375,0 -0.3125,0 0,1.6875 c 0.095,-0.5707 0.2035,-1.1321 0.3125,-1.6875 z"
       style="fill:url(#pattern3347);fill-opacity:1;fill-rule:nonzero;stroke:none;display:inline" />
    <path
       sodipodi:nodetypes="ccccccccccccccccc"
       style="font-size:139.41868591px;font-style:normal;font-variant:normal;font-weight:bold;font-stretch:normal;line-height:125%;letter-spacing:0px;word-spacing:0px;fill:#4e9a06;fill-opacity:1;stroke:none;display:inline;font-family:Rondalo;-inkscape-font-specification:Rondalo Bold"
       d="m 180.0001,372.36218 c -1.6965,1.99893 -3.0177,3.479 -4.0001,4.4308 -2.9464,2.85558 -5.1448,4.27591 -6.5736,4.27587 -14.2865,4e-5 -49.4264,-2e-5 -49.4264,-2e-5 l 1e-4,39.61914 c 2.143,12.84988 7.7606,21.78781 16.8682,26.83261 7.4113,4.09291 18.2716,6.1349 32.5581,6.13494 1.4288,-4e-5 3.6272,1.45128 6.5736,4.30685 0.9824,0.95181 2.3036,2.4009 4.0001,4.39981 1.6965,-1.99891 3.0177,-3.448 4.0001,-4.39981 2.9464,-2.85557 5.1448,-4.30689 6.5736,-4.30685 14.2865,-4e-5 25.1468,-2.04203 32.5581,-6.13494 9.1076,-5.0448 14.7252,-13.98273 16.8682,-26.83261 L 240,381.06883 c 0,0 -35.1397,6e-5 -49.4262,2e-5 -1.4288,4e-5 -3.6272,-1.42029 -6.5736,-4.27587 -0.9823,-0.9518 -2.3036,-2.43187 -4.0001,-4.4308 z"
       id="path12168"
       inkscape:connector-curvature="0" />
    <use
       x="0"
       y="0"
       xlink:href="#path12062"
       id="use3833"
       transform="matrix(-1,0,0,1,360.0001,0)"
       width="720"
       height="720" />
    <use
       x="0"
       y="0"
       xlink:href="#path12062"
       id="use3835"
       transform="translate(360.0001,0)"
       width="720"
       height="720" />
    <use
       x="0"
       y="0"
       xlink:href="#path12062"
       id="use3837"
       transform="matrix(-1,0,0,1,600.0001,0)"
       width="720"
       height="720" />
    <path
       sodipodi:nodetypes="ccccccccccccccccccc"
       style="font-size:139.41868591px;font-style:normal;font-variant:normal;font-weight:bold;font-stretch:normal;line-height:125%;letter-spacing:0px;word-spacing:0px;fill:#4e9a06;fill-opacity:1;stroke:none;display:inline;font-family:Rondalo;-inkscape-font-specification:Rondalo Bold"
       d="m 660.0001,372.36218 c -1.6965,1.99893 -3.0177,3.479 -4.0001,4.4308 -2.9464,2.85558 -5.1448,4.27591 -6.5736,4.27587 -14.2865,4e-5 -25.1468,2.04204 -32.5581,6.13493 -9.1076,5.04481 -14.7252,13.98273 -16.8682,26.83262 l 0,6.65157 c 2.143,12.84988 7.7606,21.78781 16.8682,26.83261 7.4113,4.09291 18.2716,6.1349 32.5581,6.13494 1.4288,-4e-5 3.6272,1.45128 6.5736,4.30685 0.9824,0.95181 2.3036,2.4009 4.0001,4.39981 1.6965,-1.99891 3.0177,-3.448 4.0001,-4.39981 2.9464,-2.85557 5.1448,-4.30689 6.5736,-4.30685 14.2865,-4e-5 25.1468,-2.04203 32.5581,-6.13494 9.1076,-5.0448 14.7252,-13.98273 16.8682,-26.83261 l 0,-6.65157 c -2.143,-12.84989 -7.7606,-21.78781 -16.8682,-26.83262 -7.4113,-4.09289 -18.2716,-6.13489 -32.5581,-6.13493 -1.4288,4e-5 -3.6272,-1.42029 -6.5736,-4.27587 -0.9823,-0.9518 -2.3036,-2.43187 -4.0001,-4.4308 z"
       id="path12176"
       inkscape:connector-curvature="0" />
    <path
       inkscape:connector-curvature="0"
       style="fill:url(#linearGradient10736-7-2);fill-opacity:1;fill-rule:nonzero;stroke:none;display:inline"
       d="m 0,722.38673 c 2.3428,11.94712 7.8594,20.33551 16.5625,25.15625 7.4113,4.0929 18.275997,6.12496 32.562497,6.125 1.4288,-4e-5 3.6161,1.45693 6.5625,4.3125 0.9824,0.95181 2.3035,2.40733 4,4.40625 1.6965,-1.99892 3.0176,-3.45444 4,-4.40625 2.9464,-2.85557 5.1337,-4.31254 6.5625,-4.3125 14.2865,-4e-5 25.1512,-2.0321 32.562503,-6.125 8.7031,-4.82074 14.2197,-13.20913 16.5625,-25.15625 l -119.375,0 z m 120,0 c 2.3428,11.94712 7.8594,20.33551 16.5625,25.15625 7.4113,4.0929 18.276,6.12496 32.5625,6.125 1.4288,-4e-5 3.6161,1.45693 6.5625,4.3125 0.9824,0.95181 2.3035,2.40733 4,4.40625 1.6965,-1.99892 3.0176,-3.45444 4,-4.40625 2.9464,-2.85557 5.1337,-4.31254 6.5625,-4.3125 14.2865,-4e-5 25.1512,-2.0321 32.5625,-6.125 8.7031,-4.82074 14.2197,-13.20913 16.5625,-25.15625 l -119.375,0 z m 120,0 c 2.3428,11.94712 7.8594,20.33551 16.5625,25.15625 7.4113,4.0929 18.276,6.12496 32.5625,6.125 1.4288,-4e-5 3.6161,1.45693 6.5625,4.3125 0.9824,0.95181 2.3035,2.40733 4,4.40625 1.6965,-1.99892 3.0176,-3.45444 4,-4.40625 2.9464,-2.85557 5.1337,-4.31254 6.5625,-4.3125 14.2865,-4e-5 25.1512,-2.0321 32.5625,-6.125 8.7031,-4.82074 14.2197,-13.20913 16.5625,-25.15625 l -119.375,0 z m 120,0 c 2.3428,11.94712 7.8594,20.33551 16.5625,25.15625 7.4113,4.0929 18.276,6.12496 32.5625,6.125 1.4288,-4e-5 3.6161,1.45693 6.5625,4.3125 0.9824,0.95181 2.3035,2.40733 4,4.40625 1.6965,-1.99892 3.0176,-3.45444 4,-4.40625 2.9464,-2.85557 5.1337,-4.31254 6.5625,-4.3125 14.2865,-4e-5 25.1512,-2.0321 32.5625,-6.125 8.7031,-4.82074 14.2197,-13.20913 16.5625,-25.15625 l -119.375,0 z m 120,0 c 2.3428,11.94712 7.8594,20.33551 16.5625,25.15625 7.4113,4.0929 18.276,6.12496 32.5625,6.125 1.4288,-4e-5 3.6161,1.45693 6.5625,4.3125 0.9824,0.95181 2.3035,2.40733 4,4.40625 1.6965,-1.99892 3.0176,-3.45444 4,-4.40625 2.9464,-2.85557 5.1337,-4.31254 6.5625,-4.3125 14.2865,-4e-5 25.1512,-2.0321 32.5625,-6.125 8.7031,-4.82074 14.2197,-13.20913 16.5625,-25.15625 l -119.375,0 z m 120,0 c 2.3428,11.94712 7.8594,20.33551 16.5625,25.15625 7.4113,4.0929 18.276,6.12496 32.5625,6.125 1.4288,-4e-5 3.6161,1.45693 6.5625,4.3125 0.9824,0.95181 2.3035,2.40733 4,4.40625 1.6965,-1.99892 3.0176,-3.45444 4,-4.40625 2.9464,-2.85557 5.1337,-4.31254 6.5625,-4.3125 14.2865,-4e-5 25.1512,-2.0321 32.5625,-6.125 8.7031,-4.82074 14.2197,-13.20913 16.5625,-25.15625 l -119.375,0 z"
       id="path10676" />
    <path
       id="path10680"
       d="m 0,802.41798 c 2.3428,-11.94712 7.8594,-20.33551 16.5625,-25.15625 7.4113,-4.0929 18.275997,-6.12496 32.562497,-6.125 1.4288,4e-5 3.6161,-1.45693 6.5625,-4.3125 0.9824,-0.95181 2.3035,-2.40733 4,-4.40625 1.6965,1.99892 3.0176,3.45444 4,4.40625 2.9464,2.85557 5.1337,4.31254 6.5625,4.3125 14.2865,4e-5 25.1512,2.0321 32.562503,6.125 8.7031,4.82074 14.2197,13.20913 16.5625,25.15625 l -119.375,0 z m 120,0 c 2.3428,-11.94712 7.8594,-20.33551 16.5625,-25.15625 7.4113,-4.0929 18.276,-6.12496 32.5625,-6.125 1.4288,4e-5 3.6161,-1.45693 6.5625,-4.3125 0.9824,-0.95181 2.3035,-2.40733 4,-4.40625 1.6965,1.99892 3.0176,3.45444 4,4.40625 2.9464,2.85557 5.1337,4.31254 6.5625,4.3125 14.2865,4e-5 25.1512,2.0321 32.5625,6.125 8.7031,4.82074 14.2197,13.20913 16.5625,25.15625 l -119.375,0 z m 120,0 c 2.3428,-11.94712 7.8594,-20.33551 16.5625,-25.15625 7.4113,-4.0929 18.276,-6.12496 32.5625,-6.125 1.4288,4e-5 3.6161,-1.45693 6.5625,-4.3125 0.9824,-0.95181 2.3035,-2.40733 4,-4.40625 1.6965,1.99892 3.0176,3.45444 4,4.40625 2.9464,2.85557 5.1337,4.31254 6.5625,4.3125 14.2865,4e-5 25.1512,2.0321 32.5625,6.125 8.7031,4.82074 14.2197,13.20913 16.5625,25.15625 l -119.375,0 z m 120,0 c 2.3428,-11.94712 7.8594,-20.33551 16.5625,-25.15625 7.4113,-4.0929 18.276,-6.12496 32.5625,-6.125 1.4288,4e-5 3.6161,-1.45693 6.5625,-4.3125 0.9824,-0.95181 2.3035,-2.40733 4,-4.40625 1.6965,1.99892 3.0176,3.45444 4,4.40625 2.9464,2.85557 5.1337,4.31254 6.5625,4.3125 14.2865,4e-5 25.1512,2.0321 32.5625,6.125 8.7031,4.82074 14.2197,13.20913 16.5625,25.15625 l -119.375,0 z m 120,0 c 2.3428,-11.94712 7.8594,-20.33551 16.5625,-25.15625 7.4113,-4.0929 18.276,-6.12496 32.5625,-6.125 1.4288,4e-5 3.6161,-1.45693 6.5625,-4.3125 0.9824,-0.95181 2.3035,-2.40733 4,-4.40625 1.6965,1.99892 3.0176,3.45444 4,4.40625 2.9464,2.85557 5.1337,4.31254 6.5625,4.3125 14.2865,4e-5 25.1512,2.0321 32.5625,6.125 8.7031,4.82074 14.2197,13.20913 16.5625,25.15625 l -119.375,0 z m 120,0 c 2.3428,-11.94712 7.8594,-20.33551 16.5625,-25.15625 7.4113,-4.0929 18.276,-6.12496 32.5625,-6.125 1.4288,4e-5 3.6161,-1.45693 6.5625,-4.3125 0.9824,-0.95181 2.3035,-2.40733 4,-4.40625 1.6965,1.99892 3.0176,3.45444 4,4.40625 2.9464,2.85557 5.1337,4.31254 6.5625,4.3125 14.2865,4e-5 25.1512,2.0321 32.5625,6.125 8.7031,4.82074 14.2197,13.20913 16.5625,25.15625 l -119.375,0 z"
       style="fill:url(#linearGradient10744-3-2);fill-opacity:1;fill-rule:nonzero;stroke:none;display:inline"
       inkscape:connector-curvature="0" />
    <path
       inkscape:connector-curvature="0"
       style="fill:url(#linearGradient10728-6-9);fill-opacity:1;fill-rule:nonzero;stroke:none;display:inline"
       d="m 0.3124,652.36218 c 2.3428,-11.94712 7.8595,-20.33551 16.5626,-25.15625 7.4113,-4.0929 18.275997,-6.12496 32.562497,-6.125 1.4288,4e-5 3.6161,-1.45693 6.5625,-4.3125 0.9824,-0.95181 2.3035,-2.40733 4,-4.40625 1.6965,1.99892 3.0176,3.45444 4,4.40625 2.9464,2.85557 5.1337,4.31254 6.5625,4.3125 14.2865,4e-5 25.1512,2.0321 32.562503,6.125 8.7031,4.82074 14.2197,13.20913 16.5625,25.15625 l -119.3751,0 z m 120.0001,0 c 2.3428,-11.94712 7.8594,-20.33551 16.5625,-25.15625 7.4113,-4.0929 18.276,-6.12496 32.5625,-6.125 1.4288,4e-5 3.6161,-1.45693 6.5625,-4.3125 0.9824,-0.95181 2.3035,-2.40733 4,-4.40625 1.6965,1.99892 3.0176,3.45444 4,4.40625 2.9464,2.85557 5.1337,4.31254 6.5625,4.3125 14.2865,4e-5 25.1512,2.0321 32.5625,6.125 8.7031,4.82074 14.2197,13.20913 16.5625,25.15625 l -119.375,0 z m 120,0 c 2.3428,-11.94712 7.8594,-20.33551 16.5625,-25.15625 7.4113,-4.0929 18.276,-6.12496 32.5625,-6.125 1.4288,4e-5 3.6161,-1.45693 6.5625,-4.3125 0.9824,-0.95181 2.3035,-2.40733 4,-4.40625 1.6965,1.99892 3.0176,3.45444 4,4.40625 2.9464,2.85557 5.1337,4.31254 6.5625,4.3125 14.2865,4e-5 25.1512,2.0321 32.5625,6.125 8.7031,4.82074 14.2197,13.20913 16.5625,25.15625 l -119.375,0 z m 120,0 c 2.3428,-11.94712 7.8594,-20.33551 16.5625,-25.15625 7.4113,-4.0929 18.276,-6.12496 32.5625,-6.125 1.4288,4e-5 3.6161,-1.45693 6.5625,-4.3125 0.9824,-0.95181 2.3035,-2.40733 4,-4.40625 1.6965,1.99892 3.0176,3.45444 4,4.40625 2.9464,2.85557 5.1337,4.31254 6.5625,4.3125 14.2865,4e-5 25.1512,2.0321 32.5625,6.125 8.7031,4.82074 14.2197,13.20913 16.5625,25.15625 l -119.375,0 z m 120,0 c 2.3428,-11.94712 7.8594,-20.33551 16.5625,-25.15625 7.4113,-4.0929 18.276,-6.12496 32.5625,-6.125 1.4288,4e-5 3.6161,-1.45693 6.5625,-4.3125 0.9824,-0.95181 2.3035,-2.40733 4,-4.40625 1.6965,1.99892 3.0176,3.45444 4,4.40625 2.9464,2.85557 5.1337,4.31254 6.5625,4.3125 14.2865,4e-5 25.1512,2.0321 32.5625,6.125 8.7031,4.82074 14.2197,13.20913 16.5625,25.15625 l -119.375,0 z m 120,0 c 2.3428,-11.94712 7.8594,-20.33551 16.5625,-25.15625 7.4113,-4.0929 18.276,-6.12496 32.5625,-6.125 1.4288,4e-5 3.6161,-1.45693 6.5625,-4.3125 0.9824,-0.95181 2.3035,-2.40733 4,-4.40625 1.6965,1.99892 3.0176,3.45444 4,4.40625 2.9464,2.85557 5.1337,4.31254 6.5625,4.3125 14.2865,4e-5 25.1512,2.0321 32.5625,6.125 8.7031,4.82074 14.2197,13.20913 16.5625,25.15625 l -119.375,0 z"
       id="path10678" />
  </g>
  <g
     inkscape:groupmode="layer"
     id="layer2"
     inkscape:label="text">
    <text
       sodipodi:linespacing="125%"
       id="text9426"
       y="514.61816"
       x="420.18079"
       style="font-size:20px;font-style:normal;font-weight:normal;line-height:125%;letter-spacing:0px;word-spacing:0px;fill:#ffffff;fill-opacity:1;stroke:none;display:inline;font-family:Sans"
       xml:space="preserve"><tspan
         id="tspan9430"
         style="font-size:20px;font-weight:bold;text-align:center;text-anchor:middle;fill:#ffffff;-inkscape-font-specification:Sans Bold"
         y="514.61816"
         x="420.18079"
         sodipodi:role="line">Windows</tspan><tspan
         id="tspan9448"
         style="font-size:20px;font-weight:bold;text-align:center;text-anchor:middle;fill:#ffffff;-inkscape-font-specification:Sans Bold"
         y="539.61816"
         x="420.18079"
         sodipodi:role="line">8.1</tspan></text>
    <text
       xml:space="preserve"
       style="font-size:20px;font-style:normal;font-weight:normal;line-height:125%;letter-spacing:0px;word-spacing:0px;fill:#ffffff;fill-opacity:1;stroke:none;display:inline;font-family:Sans"
       x="59.525024"
       y="175.78194"
       id="text10064"
       sodipodi:linespacing="125%"><tspan
         sodipodi:role="line"
         x="59.525024"
         y="175.78194"
         style="font-size:20px;font-weight:bold;text-align:center;text-anchor:middle;fill:#ffffff;-inkscape-font-specification:Sans Bold"
         id="tspan10066">OpenGL</tspan><tspan
         sodipodi:role="line"
         x="59.525024"
         y="200.78194"
         style="font-size:20px;font-weight:bold;text-align:center;text-anchor:middle;fill:#ffffff;-inkscape-font-specification:Sans Bold"
         id="tspan10068">4.2</tspan><tspan
         sodipodi:role="line"
         x="59.525024"
         y="219.80144"
         style="font-size:14px;font-weight:bold;text-align:center;text-anchor:middle;fill:#ffffff;-inkscape-font-specification:Sans Bold"
         id="tspan10070">State Tracker</tspan></text>
    <text
       xml:space="preserve"
       style="font-size:18px;font-style:normal;font-weight:normal;line-height:125%;letter-spacing:0px;word-spacing:0px;fill:#ffffff;fill-opacity:1;stroke:none;display:inline;font-family:Sans"
       x="299.93857"
       y="361.09567"
       id="text10072"
       sodipodi:linespacing="125%"><tspan
         sodipodi:role="line"
         x="299.93857"
         y="361.09567"
         style="font-size:18px;font-weight:bold;text-align:center;text-anchor:middle;fill:#ffffff;-inkscape-font-specification:Sans Bold"
         id="tspan10074">Noveau</tspan></text>
    <text
       sodipodi:linespacing="125%"
       id="text10076"
       y="514.37891"
       x="59.228638"
       style="font-size:20px;font-style:normal;font-weight:normal;line-height:125%;letter-spacing:0px;word-spacing:0px;fill:#ffffff;fill-opacity:1;stroke:none;display:inline;font-family:Sans"
       xml:space="preserve"><tspan
         id="tspan10078"
         style="font-size:20px;font-weight:bold;text-align:center;text-anchor:middle;fill:#ffffff;-inkscape-font-specification:Sans Bold"
         y="514.37891"
         x="59.228638"
         sodipodi:role="line">Linux</tspan><tspan
         id="tspan10080"
         style="font-size:20px;font-weight:bold;text-align:center;text-anchor:middle;fill:#ffffff;-inkscape-font-specification:Sans Bold"
         y="539.37891"
         x="59.228638"
         sodipodi:role="line">3.12</tspan></text>
    <text
       sodipodi:linespacing="125%"
       id="text11113"
       y="175.78194"
       x="179.52502"
       style="font-size:20px;font-style:normal;font-weight:normal;line-height:125%;letter-spacing:0px;word-spacing:0px;fill:#ffffff;fill-opacity:1;stroke:none;display:inline;font-family:Sans"
       xml:space="preserve"><tspan
         id="tspan11115"
         style="font-size:20px;font-weight:bold;text-align:center;text-anchor:middle;fill:#ffffff;-inkscape-font-specification:Sans Bold"
         y="175.78194"
         x="179.52502"
         sodipodi:role="line">GLX</tspan><tspan
         style="font-size:20px;font-weight:bold;text-align:center;text-anchor:middle;fill:#ffffff;-inkscape-font-specification:Sans Bold"
         y="200.78194"
         x="179.52502"
         sodipodi:role="line"
         id="tspan11117">1.4</tspan><tspan
         id="tspan11119"
         style="font-size:14px;font-weight:bold;text-align:center;text-anchor:middle;fill:#ffffff;-inkscape-font-specification:Sans Bold"
         y="219.80144"
         x="179.52502"
         sodipodi:role="line">State Tracker</tspan></text>
    <text
       xml:space="preserve"
       style="font-size:20px;font-style:normal;font-weight:normal;line-height:125%;letter-spacing:0px;word-spacing:0px;fill:#ffffff;fill-opacity:1;stroke:none;display:inline;font-family:Sans"
       x="299.52499"
       y="175.78194"
       id="text11121"
       sodipodi:linespacing="125%"><tspan
         sodipodi:role="line"
         x="299.52499"
         y="175.78194"
         style="font-size:20px;font-weight:bold;text-align:center;text-anchor:middle;fill:#ffffff;-inkscape-font-specification:Sans Bold"
         id="tspan11123">EGL</tspan><tspan
         sodipodi:role="line"
         x="299.52499"
         y="200.78194"
         style="font-size:20px;font-weight:bold;text-align:center;text-anchor:middle;fill:#ffffff;-inkscape-font-specification:Sans Bold"
         id="tspan3961">1.4</tspan><tspan
         sodipodi:role="line"
         x="299.52499"
         y="219.80144"
         style="font-size:14px;font-weight:bold;text-align:center;text-anchor:middle;fill:#ffffff;-inkscape-font-specification:Sans Bold"
         id="tspan11125">State Tracker</tspan></text>
    <text
       xml:space="preserve"
       style="font-size:20px;font-style:normal;font-weight:normal;line-height:125%;letter-spacing:0px;word-spacing:0px;fill:#ffffff;fill-opacity:1;stroke:none;display:inline;font-family:Sans"
       x="419.52502"
       y="175.78194"
       id="text11127"
       sodipodi:linespacing="125%"><tspan
         sodipodi:role="line"
         x="419.52502"
         y="175.78194"
         style="font-size:20px;font-weight:bold;text-align:center;text-anchor:middle;fill:#ffffff;-inkscape-font-specification:Sans Bold"
         id="tspan11129">Direct3D</tspan><tspan
         sodipodi:role="line"
         x="419.52502"
         y="200.78194"
         style="font-size:20px;font-weight:bold;text-align:center;text-anchor:middle;fill:#ffffff;-inkscape-font-specification:Sans Bold"
         id="tspan11131">9</tspan><tspan
         sodipodi:role="line"
         x="419.52502"
         y="219.80144"
         style="font-size:14px;font-weight:bold;text-align:center;text-anchor:middle;fill:#ffffff;-inkscape-font-specification:Sans Bold"
         id="tspan11133">State Tracker</tspan></text>
    <text
       sodipodi:linespacing="125%"
       id="text11135"
       y="175.78194"
       x="539.52502"
       style="font-size:20px;font-style:normal;font-weight:normal;line-height:125%;letter-spacing:0px;word-spacing:0px;fill:#ffffff;fill-opacity:1;stroke:none;display:inline;font-family:Sans"
       xml:space="preserve"><tspan
         id="tspan11137"
         style="font-size:20px;font-weight:bold;text-align:center;text-anchor:middle;fill:#ffffff;-inkscape-font-specification:Sans Bold"
         y="175.78194"
         x="539.52502"
         sodipodi:role="line">Direct3D</tspan><tspan
         id="tspan11139"
         style="font-size:20px;font-weight:bold;text-align:center;text-anchor:middle;fill:#ffffff;-inkscape-font-specification:Sans Bold"
         y="200.78194"
         x="539.52502"
         sodipodi:role="line">10+11</tspan><tspan
         id="tspan11141"
         style="font-size:14px;font-weight:bold;text-align:center;text-anchor:middle;fill:#ffffff;-inkscape-font-specification:Sans Bold"
         y="219.80144"
         x="539.52502"
         sodipodi:role="line">State Tracker</tspan></text>
    <text
       sodipodi:linespacing="125%"
       id="text11143"
       y="188.10616"
       x="659.52502"
       style="font-size:20px;font-style:normal;font-weight:normal;line-height:125%;letter-spacing:0px;word-spacing:0px;fill:#ffffff;fill-opacity:1;stroke:none;display:inline;font-family:Sans"
       xml:space="preserve"><tspan
         id="tspan11145"
         style="font-size:20px;font-weight:bold;text-align:center;text-anchor:middle;fill:#ffffff;-inkscape-font-specification:Sans Bold"
         y="188.10616"
         x="659.52502"
         sodipodi:role="line">X.Org</tspan><tspan
         id="tspan11147"
         style="font-size:14px;font-weight:bold;text-align:center;text-anchor:middle;fill:#ffffff;-inkscape-font-specification:Sans Bold"
         y="207.12566"
         x="659.52502"
         sodipodi:role="line">State Tracker</tspan></text>
    <text
       sodipodi:linespacing="125%"
       id="text11149"
       y="361.37253"
       x="59.885864"
       style="font-size:18px;font-style:normal;font-weight:normal;line-height:125%;letter-spacing:0px;word-spacing:0px;fill:#ffffff;fill-opacity:1;stroke:none;display:inline;font-family:Sans"
       xml:space="preserve"><tspan
         id="tspan11151"
         style="font-size:18px;font-weight:bold;text-align:center;text-anchor:middle;fill:#ffffff;-inkscape-font-specification:Sans Bold"
         y="361.37253"
         x="59.885864"
         sodipodi:role="line">Radeon</tspan></text>
    <text
       xml:space="preserve"
       style="font-size:18px;font-style:normal;font-weight:normal;line-height:125%;letter-spacing:0px;word-spacing:0px;fill:#ffffff;fill-opacity:1;stroke:none;display:inline;font-family:Sans"
       x="179.9386"
       y="361.37253"
       id="text11153"
       sodipodi:linespacing="125%"><tspan
         sodipodi:role="line"
         x="179.9386"
         y="361.37253"
         style="font-size:18px;font-weight:bold;text-align:center;text-anchor:middle;fill:#ffffff;-inkscape-font-specification:Sans Bold"
         id="tspan11155">Intel</tspan></text>
    <text
       sodipodi:linespacing="125%"
       id="text11157"
       y="361.37253"
       x="419.56506"
       style="font-size:18px;font-style:normal;font-weight:normal;line-height:125%;letter-spacing:0px;word-spacing:0px;fill:#ffffff;fill-opacity:1;stroke:none;display:inline;font-family:Sans"
       xml:space="preserve"><tspan
         id="tspan11159"
         style="font-size:18px;font-weight:bold;text-align:center;text-anchor:middle;fill:#ffffff;-inkscape-font-specification:Sans Bold"
         y="361.37253"
         x="419.56506"
         sodipodi:role="line">Freedreno</tspan></text>
    <text
       xml:space="preserve"
       style="font-size:18px;font-style:normal;font-weight:normal;line-height:125%;letter-spacing:0px;word-spacing:0px;fill:#ffffff;fill-opacity:1;stroke:none;display:inline;font-family:Sans"
       x="539.89026"
       y="361.37253"
       id="text11161"
       sodipodi:linespacing="125%"><tspan
         sodipodi:role="line"
         x="539.89026"
         y="361.37253"
         style="font-size:18px;font-weight:bold;text-align:center;text-anchor:middle;fill:#ffffff;-inkscape-font-specification:Sans Bold"
         id="tspan11163">Lima</tspan></text>
    <text
       sodipodi:linespacing="125%"
       id="text11165"
       y="359.37741"
       x="659.74963"
       style="font-size:18px;font-style:normal;font-weight:normal;line-height:125%;letter-spacing:0px;word-spacing:0px;fill:#ffffff;fill-opacity:1;stroke:none;display:inline;font-family:Sans"
       xml:space="preserve"><tspan
         id="tspan11167"
         style="font-size:18px;font-weight:bold;text-align:center;text-anchor:middle;fill:#ffffff;-inkscape-font-specification:Sans Bold"
         y="359.37741"
         x="659.74963"
         sodipodi:role="line">etna_viv</tspan></text>
    <text
       xml:space="preserve"
       style="font-size:20px;font-style:normal;font-weight:normal;line-height:125%;letter-spacing:0px;word-spacing:0px;fill:#ffffff;fill-opacity:1;stroke:none;display:inline;font-family:Sans"
       x="299.81943"
       y="514.44238"
       id="text11169"
       sodipodi:linespacing="125%"><tspan
         sodipodi:role="line"
         x="299.81943"
         y="514.44238"
         style="font-size:20px;font-weight:bold;text-align:center;text-anchor:middle;fill:#ffffff;-inkscape-font-specification:Sans Bold"
         id="tspan11171">MAC OS</tspan><tspan
         sodipodi:role="line"
         x="299.81943"
         y="539.44238"
         style="font-size:20px;font-weight:bold;text-align:center;text-anchor:middle;fill:#ffffff;-inkscape-font-specification:Sans Bold"
         id="tspan11173">10.8</tspan></text>
    <text
       xml:space="preserve"
       style="font-size:20px;font-style:normal;font-weight:normal;line-height:125%;letter-spacing:0px;word-spacing:0px;fill:#ffffff;fill-opacity:1;stroke:none;display:inline;font-family:Sans"
       x="179.60461"
       y="514.44238"
       id="text11175"
       sodipodi:linespacing="125%"><tspan
         sodipodi:role="line"
         x="179.60461"
         y="514.44238"
         style="font-size:20px;font-weight:bold;text-align:center;text-anchor:middle;fill:#ffffff;-inkscape-font-specification:Sans Bold"
         id="tspan11177">FreeBSD</tspan><tspan
         id="tspan11179"
         sodipodi:role="line"
         x="179.60461"
         y="539.44238"
         style="font-size:20px;font-weight:bold;text-align:center;text-anchor:middle;fill:#ffffff;-inkscape-font-specification:Sans Bold">10.0</tspan></text>
    <text
       sodipodi:linespacing="125%"
       id="text11181"
       y="514.61816"
       x="660.35168"
       style="font-size:20px;font-style:normal;font-weight:normal;line-height:125%;letter-spacing:0px;word-spacing:0px;fill:#ffffff;fill-opacity:1;stroke:none;display:inline;font-family:Sans"
       xml:space="preserve"><tspan
         id="tspan11187"
         style="font-size:20px;font-weight:bold;text-align:center;text-anchor:middle;fill:#ffffff;-inkscape-font-specification:Sans Bold"
         y="514.61816"
         x="660.35168"
         sodipodi:role="line">GNU Hurd</tspan><tspan
         style="font-size:20px;font-weight:bold;text-align:center;text-anchor:middle;fill:#ffffff;-inkscape-font-specification:Sans Bold"
         y="539.61816"
         x="660.35168"
         sodipodi:role="line"
         id="tspan11185">1.0</tspan></text>
    <text
       xml:space="preserve"
       style="font-size:20px;font-style:normal;font-weight:normal;line-height:125%;letter-spacing:0px;word-spacing:0px;fill:#ffffff;fill-opacity:1;stroke:none;display:inline;font-family:Sans"
       x="539.22864"
       y="514.61816"
       id="text11191"
       sodipodi:linespacing="125%"><tspan
         sodipodi:role="line"
         x="539.22864"
         y="514.61816"
         style="font-size:20px;font-weight:bold;text-align:center;text-anchor:middle;fill:#ffffff;-inkscape-font-specification:Sans Bold"
         id="tspan11193">MINIX</tspan><tspan
         id="tspan11195"
         sodipodi:role="line"
         x="539.22864"
         y="539.61816"
         style="font-size:20px;font-weight:bold;text-align:center;text-anchor:middle;fill:#ffffff;-inkscape-font-specification:Sans Bold">3.2</tspan></text>
    <text
       xml:space="preserve"
       style="font-size:28px;font-style:normal;font-weight:bold;line-height:125%;letter-spacing:0px;word-spacing:0px;fill:#ffff00;fill-opacity:1;stroke:#000000;stroke-width:2;stroke-miterlimit:4;stroke-opacity:1;stroke-dasharray:none;display:inline;font-family:Sans;-inkscape-font-specification:Sans Bold"
       x="359.97263"
       y="290.60321"
       id="text11197"
       sodipodi:linespacing="125%"><tspan
         sodipodi:role="line"
         x="359.97263"
         y="290.60321"
         style="font-size:28px;font-weight:bold;text-align:center;text-anchor:middle;fill:#ffff00;fill-opacity:1;stroke:#000000;stroke-width:2;stroke-miterlimit:4;stroke-opacity:1;stroke-dasharray:none;-inkscape-font-specification:Sans Bold"
         id="tspan11199">Gallium3D Tracker Interface</tspan></text>
    <text
       sodipodi:linespacing="125%"
       id="text11201"
       y="438.95673"
       x="359.97263"
       style="font-size:20px;font-style:normal;font-weight:bold;line-height:125%;letter-spacing:0px;word-spacing:0px;fill:#ff00ff;fill-opacity:1;stroke:#000000;stroke-width:2;stroke-miterlimit:4;stroke-opacity:1;stroke-dasharray:none;display:inline;font-family:Sans;-inkscape-font-specification:Sans Bold"
       xml:space="preserve"><tspan
         id="tspan11203"
         style="font-size:28px;font-weight:bold;text-align:center;text-anchor:middle;fill:#ff00ff;stroke:#000000;stroke-width:2;stroke-miterlimit:4;stroke-opacity:1;stroke-dasharray:none;-inkscape-font-specification:Sans Bold"
         y="438.95673"
         x="359.97263"
         sodipodi:role="line">Gallium3D WinSys Interface</tspan></text>
    <text
       sodipodi:linespacing="125%"
       id="text12070"
       y="84.829758"
       x="59.657227"
       style="font-size:12px;font-style:normal;font-weight:normal;line-height:125%;letter-spacing:0px;word-spacing:0px;fill:#000000;fill-opacity:1;stroke:none;display:inline;font-family:Sans"
       xml:space="preserve"><tspan
         style="font-size:12px;font-weight:bold;text-align:center;text-anchor:middle;fill:#000000;-inkscape-font-specification:Sans Bold"
         y="84.829758"
         x="59.657227"
         sodipodi:role="line"
         id="tspan12072" /><tspan
         id="tspan12078"
         style="font-size:12px;font-weight:bold;text-align:center;text-anchor:middle;fill:#000000;-inkscape-font-specification:Sans Bold"
         y="99.829758"
         x="59.657227"
         sodipodi:role="line">libGL</tspan></text>
    <text
       xml:space="preserve"
       style="font-size:20px;font-style:normal;font-weight:normal;line-height:125%;letter-spacing:0px;word-spacing:0px;fill:#000000;fill-opacity:1;stroke:none;display:inline;font-family:Sans"
       x="659.28723"
       y="91.952057"
       id="text12178"
       sodipodi:linespacing="125%"><tspan
         sodipodi:role="line"
         x="659.28723"
         y="91.952057"
         style="font-size:20px;font-weight:bold;text-align:center;text-anchor:middle;fill:#000000;-inkscape-font-specification:Sans Bold"
         id="tspan12182">DDX</tspan></text>
    <text
       xml:space="preserve"
       style="font-size:20px;font-style:normal;font-weight:normal;line-height:125%;letter-spacing:0px;word-spacing:0px;fill:#000000;fill-opacity:1;stroke:none;display:inline;font-family:Sans"
       x="60.009766"
       y="614.71655"
       id="text12198"
       sodipodi:linespacing="125%"><tspan
         id="tspan12200"
         sodipodi:role="line"
         x="60.009766"
         y="614.71655"
         style="font-size:20px;font-weight:bold;text-align:center;text-anchor:middle;fill:#000000;-inkscape-font-specification:Sans Bold">Linux</tspan><tspan
         sodipodi:role="line"
         x="60.009766"
         y="639.71655"
         style="font-size:20px;font-weight:bold;text-align:center;text-anchor:middle;fill:#000000;-inkscape-font-specification:Sans Bold"
         id="tspan12206">kernel</tspan></text>
    <text
       sodipodi:linespacing="125%"
       id="text12229"
       y="614.71655"
       x="179.60449"
       style="font-size:20px;font-style:normal;font-weight:normal;line-height:125%;letter-spacing:0px;word-spacing:0px;fill:#000000;fill-opacity:1;stroke:none;display:inline;font-family:Sans"
       xml:space="preserve"><tspan
         style="font-size:20px;font-weight:bold;text-align:center;text-anchor:middle;fill:#000000;-inkscape-font-specification:Sans Bold"
         y="614.71655"
         x="179.60449"
         sodipodi:role="line"
         id="tspan12231">FreeBSD</tspan><tspan
         id="tspan12233"
         style="font-size:20px;font-weight:bold;text-align:center;text-anchor:middle;fill:#000000;-inkscape-font-specification:Sans Bold"
         y="639.71655"
         x="179.60449"
         sodipodi:role="line">kernel</tspan></text>
    <text
       xml:space="preserve"
       style="font-size:20px;font-style:normal;font-weight:normal;line-height:125%;letter-spacing:0px;word-spacing:0px;fill:#000000;fill-opacity:1;stroke:none;display:inline;font-family:Sans"
       x="300.00974"
       y="614.71655"
       id="text12235"
       sodipodi:linespacing="125%"><tspan
         id="tspan12237"
         sodipodi:role="line"
         x="300.00974"
         y="614.71655"
         style="font-size:20px;font-weight:bold;text-align:center;text-anchor:middle;fill:#000000;-inkscape-font-specification:Sans Bold">XNU</tspan><tspan
         sodipodi:role="line"
         x="300.00974"
         y="639.71655"
         style="font-size:20px;font-weight:bold;text-align:center;text-anchor:middle;fill:#000000;-inkscape-font-specification:Sans Bold"
         id="tspan12239">kernel</tspan></text>
    <text
       sodipodi:linespacing="125%"
       id="text12241"
       y="614.71655"
       x="420.18066"
       style="font-size:20px;font-style:normal;font-weight:normal;line-height:125%;letter-spacing:0px;word-spacing:0px;fill:#000000;fill-opacity:1;stroke:none;display:inline;font-family:Sans"
       xml:space="preserve"><tspan
         style="font-size:20px;font-weight:bold;text-align:center;text-anchor:middle;fill:#000000;-inkscape-font-specification:Sans Bold"
         y="614.71655"
         x="420.18066"
         sodipodi:role="line"
         id="tspan12243">Windows</tspan><tspan
         id="tspan12245"
         style="font-size:20px;font-weight:bold;text-align:center;text-anchor:middle;fill:#000000;-inkscape-font-specification:Sans Bold"
         y="639.71655"
         x="420.18066"
         sodipodi:role="line">kernel</tspan></text>
    <text
       xml:space="preserve"
       style="font-size:20px;font-style:normal;font-weight:normal;line-height:125%;letter-spacing:0px;word-spacing:0px;fill:#000000;fill-opacity:1;stroke:none;display:inline;font-family:Sans"
       x="540.00989"
       y="614.71655"
       id="text12247"
       sodipodi:linespacing="125%"><tspan
         id="tspan12249"
         sodipodi:role="line"
         x="540.00989"
         y="614.71655"
         style="font-size:20px;font-weight:bold;text-align:center;text-anchor:middle;fill:#000000;-inkscape-font-specification:Sans Bold">MINIX</tspan><tspan
         sodipodi:role="line"
         x="540.00989"
         y="639.71655"
         style="font-size:20px;font-weight:bold;text-align:center;text-anchor:middle;fill:#000000;-inkscape-font-specification:Sans Bold"
         id="tspan12251">kernel</tspan></text>
    <text
       sodipodi:linespacing="125%"
       id="text12253"
       y="614.71655"
       x="660.00989"
       style="font-size:20px;font-style:normal;font-weight:normal;line-height:125%;letter-spacing:0px;word-spacing:0px;fill:#000000;fill-opacity:1;stroke:none;display:inline;font-family:Sans"
       xml:space="preserve"><tspan
         style="font-size:20px;font-weight:bold;text-align:center;text-anchor:middle;fill:#000000;-inkscape-font-specification:Sans Bold"
         y="614.71655"
         x="660.00989"
         sodipodi:role="line"
         id="tspan12255">Hurd</tspan><tspan
         id="tspan12257"
         style="font-size:20px;font-weight:bold;text-align:center;text-anchor:middle;fill:#000000;-inkscape-font-specification:Sans Bold"
         y="639.71655"
         x="660.00989"
         sodipodi:role="line">kernel</tspan></text>
    <text
       xml:space="preserve"
       style="font-size:20px;font-style:normal;font-weight:normal;line-height:125%;letter-spacing:0px;word-spacing:0px;fill:#000000;fill-opacity:1;stroke:none;display:inline;font-family:Sans"
       x="479.56055"
       y="81.19812"
       id="text12307"
       sodipodi:linespacing="125%"><tspan
         sodipodi:role="line"
         x="479.56055"
         y="81.19812"
         style="font-size:20px;font-weight:bold;text-align:center;text-anchor:middle;fill:#000000;-inkscape-font-specification:Sans Bold"
         id="tspan12311">DirectX Runtime</tspan></text>
    <text
       xml:space="preserve"
       style="font-size:20px;font-style:normal;font-weight:normal;line-height:125%;letter-spacing:0px;word-spacing:0px;fill:#000000;fill-opacity:1;stroke:none;display:inline;font-family:Sans"
       x="179.60449"
       y="72.956696"
       id="text12327"
       sodipodi:linespacing="125%"><tspan
         id="tspan12331"
         sodipodi:role="line"
         x="179.60449"
         y="72.956696"
         style="font-size:20px;font-weight:bold;text-align:center;text-anchor:middle;fill:#000000;-inkscape-font-specification:Sans Bold">Mesa 3D</tspan><tspan
         sodipodi:role="line"
         x="179.60449"
         y="97.956696"
         style="font-size:10px;font-weight:bold;text-align:center;text-anchor:middle;fill:#000000;-inkscape-font-specification:Sans Bold"
         id="tspan12335" /></text>
    <text
       xml:space="preserve"
       style="font-size:20px;font-style:normal;font-variant:normal;font-weight:bold;font-stretch:normal;line-height:125%;letter-spacing:0px;word-spacing:0px;fill:#ffffff;fill-opacity:1;stroke:none;display:inline;font-family:Sans;-inkscape-font-specification:Sans Bold"
       x="60.117065"
       y="679.89526"
       id="text9464"
       sodipodi:linespacing="125%"><tspan
         sodipodi:role="line"
         id="tspan9466"
         x="60.117065"
         y="679.89526"
         style="font-size:18px">CPU &amp; registers  &amp;  L1  &amp;  L2  &amp;  L3  &amp;  L4   &amp; main memory</tspan></text>
    <text
       xml:space="preserve"
       style="font-size:20px;font-style:normal;font-variant:normal;font-weight:bold;font-stretch:normal;line-height:125%;letter-spacing:0px;word-spacing:0px;fill:#ffffff;fill-opacity:1;stroke:none;display:inline;font-family:Sans;-inkscape-font-specification:Sans Bold"
       x="103.13953"
       y="709.89526"
       id="text9468"
       sodipodi:linespacing="125%"><tspan
         sodipodi:role="line"
         id="tspan9470"
         x="103.13953"
         y="709.89526"
         style="font-size:18px">GPU &amp; registers  &amp;  L1  &amp;  L2   (&amp; graphic memory)</tspan></text>
    <text
       xml:space="preserve"
       style="font-size:20px;font-style:normal;font-weight:normal;line-height:125%;letter-spacing:0px;word-spacing:0px;fill:#008000;fill-opacity:1;stroke:none;display:inline;font-family:Sans"
       x="63.882202"
       y="25.839844"
       id="text12271"
       sodipodi:linespacing="125%"><tspan
         id="tspan12273"
         sodipodi:role="line"
         x="63.882202"
         y="25.839844"
         style="font-size:20px;font-weight:bold;text-align:center;text-anchor:middle;fill:#008000;-inkscape-font-specification:Sans Bold"><tspan
           id="tspan12275"
           style="font-size:20px;font-style:italic;-inkscape-font-specification:Sans Bold Italic">OpenGL</tspan></tspan></text>
    <text
       sodipodi:linespacing="125%"
       id="text12277"
       y="25.556641"
       x="184.12646"
       style="font-size:20px;font-style:normal;font-weight:normal;line-height:125%;letter-spacing:0px;word-spacing:0px;fill:#008000;fill-opacity:1;stroke:none;display:inline;font-family:Sans"
       xml:space="preserve"><tspan
         style="font-size:20px;font-weight:bold;text-align:center;text-anchor:middle;fill:#008000;-inkscape-font-specification:Sans Bold"
         y="25.556641"
         x="184.12646"
         sodipodi:role="line"
         id="tspan12279">GLX<tspan
   style="font-size:20px;font-style:italic;-inkscape-font-specification:Sans Bold Italic"
   id="tspan12281" /></tspan></text>
    <text
       xml:space="preserve"
       style="font-size:20px;font-style:normal;font-weight:normal;line-height:125%;letter-spacing:0px;word-spacing:0px;fill:#008000;fill-opacity:1;stroke:none;display:inline;font-family:Sans"
       x="302.00217"
       y="25.556641"
       id="text12283"
       sodipodi:linespacing="125%"><tspan
         id="tspan12285"
         sodipodi:role="line"
         x="302.00217"
         y="25.556641"
         style="font-size:20px;font-weight:bold;text-align:center;text-anchor:middle;fill:#008000;-inkscape-font-specification:Sans Bold">EGL</tspan></text>
    <text
       sodipodi:linespacing="125%"
       id="text12289"
       y="25.556641"
       x="423.35876"
       style="font-size:20px;font-style:normal;font-weight:normal;line-height:125%;letter-spacing:0px;word-spacing:0px;fill:#008000;fill-opacity:1;stroke:none;display:inline;font-family:Sans"
       xml:space="preserve"><tspan
         style="font-size:20px;font-weight:bold;text-align:center;text-anchor:middle;fill:#008000;-inkscape-font-specification:Sans Bold"
         y="25.556641"
         x="423.35876"
         sodipodi:role="line"
         id="tspan12291">Direct3D</tspan></text>
    <text
       xml:space="preserve"
       style="font-size:20px;font-style:normal;font-weight:normal;line-height:125%;letter-spacing:0px;word-spacing:0px;fill:#008000;fill-opacity:1;stroke:none;display:inline;font-family:Sans"
       x="543.88916"
       y="25.556641"
       id="text12295"
       sodipodi:linespacing="125%"><tspan
         id="tspan12297"
         sodipodi:role="line"
         x="543.88916"
         y="25.556641"
         style="font-size:20px;font-weight:bold;text-align:center;text-anchor:middle;fill:#008000;-inkscape-font-specification:Sans Bold">Direct3D</tspan></text>
    <text
       sodipodi:linespacing="125%"
       id="text12301"
       y="25.839844"
       x="659.1261"
       style="font-size:20px;font-style:normal;font-weight:normal;line-height:125%;letter-spacing:0px;word-spacing:0px;fill:#008000;fill-opacity:1;stroke:none;display:inline;font-family:Sans"
       xml:space="preserve"><tspan
         style="font-size:20px;font-weight:bold;text-align:center;text-anchor:middle;fill:#008000;-inkscape-font-specification:Sans Bold"
         y="25.839844"
         x="659.1261"
         sodipodi:role="line"
         id="tspan12303">EXA</tspan></text>
    <text
       sodipodi:linespacing="125%"
       id="text13468"
       y="-12.49062"
       x="-1.0488281"
       style="font-size:12px;font-style:normal;font-variant:normal;font-weight:normal;font-stretch:normal;line-height:125%;letter-spacing:0px;word-spacing:0px;fill:#000000;fill-opacity:1;stroke:none;display:inline;font-family:Liberation Mono;-inkscape-font-specification:Liberation Mono"
       xml:space="preserve"><tspan
         y="-12.49062"
         x="-1.0488281"
         id="tspan13470"
         sodipodi:role="line">by Shmuel Csaba Otto Traian; GNU FDL 1.2+ and CC-BY-SA 3.0+; created 2013-08-26, updated 2013-10-30</tspan></text>
    <text
       xml:space="preserve"
       style="font-size:12px;font-style:normal;font-weight:normal;line-height:125%;letter-spacing:0px;word-spacing:0px;fill:#000000;fill-opacity:1;stroke:none;display:inline;font-family:Sans"
       x="299.6572"
       y="84.829758"
       id="text3285"
       sodipodi:linespacing="125%"><tspan
         id="tspan3287"
         sodipodi:role="line"
         x="299.6572"
         y="84.829758"
         style="font-size:12px;font-weight:bold;text-align:center;text-anchor:middle;fill:#000000;-inkscape-font-specification:Sans Bold" /><tspan
         sodipodi:role="line"
         x="299.6572"
         y="99.829758"
         style="font-size:12px;font-weight:bold;text-align:center;text-anchor:middle;fill:#000000;-inkscape-font-specification:Sans Bold"
         id="tspan3293">libEGL</tspan></text>
    <text
       xml:space="preserve"
       style="font-size:13px;font-style:normal;font-variant:normal;font-weight:normal;font-stretch:normal;text-align:center;line-height:125%;letter-spacing:0px;word-spacing:0px;writing-mode:lr-tb;text-anchor:middle;fill:#000000;fill-opacity:1;stroke:none;display:inline;font-family:Nimbus Sans L;-inkscape-font-specification:Nimbus Sans L"
       x="179.61914"
       y="99.829758"
       id="text3955"
       sodipodi:linespacing="125%"><tspan
         sodipodi:role="line"
         id="tspan3957"
         x="179.61914"
         y="99.829758"
         style="font-size:12px;font-style:normal;font-variant:normal;font-weight:bold;font-stretch:normal;font-family:Sans;-inkscape-font-specification:Sans Bold">libGLX</tspan></text>
  </g>
</svg>
