<?xml version="1.0" encoding="UTF-8" standalone="no"?><svg xmlns="http://www.w3.org/2000/svg" xmlns:xlink="http://www.w3.org/1999/xlink" contentStyleType="text/css" height="392px" preserveAspectRatio="none" style="width:592px;height:392px;background:#FFFFFF;" version="1.1" viewBox="0 0 592 392" width="592px" zoomAndPan="magnify"><defs/><g><!--class Object--><g id="elem_Object"><rect codeLine="1" fill="#F1F1F1" height="58.7031" id="Object" rx="2.5" ry="2.5" style="stroke:#181818;stroke-width:0.5;" width="84" x="299.5" y="115"/><ellipse cx="314.5" cy="136.3516" fill="#ADD1B2" rx="11" ry="11" style="stroke:#181818;stroke-width:1.0;"/><path d="M317.2656,132.2266 Q317.4219,132.0078 317.6094,131.8984 Q317.7969,131.7891 318.0156,131.7891 Q318.3906,131.7891 318.625,132.0469 Q318.8594,132.3047 318.8594,132.9141 L318.8594,134.3672 Q318.8594,134.9766 318.625,135.2422 Q318.3906,135.5078 318.0156,135.5078 Q317.6719,135.5078 317.4688,135.3047 Q317.2656,135.1172 317.1563,134.6016 Q317.1094,134.2422 316.9219,134.0547 Q316.5938,133.6797 315.9844,133.4609 Q315.375,133.2422 314.75,133.2422 Q313.9844,133.2422 313.3516,133.5703 Q312.7188,133.8984 312.2266,134.6484 Q311.7344,135.3984 311.7344,136.4297 L311.7344,137.5234 Q311.7344,138.7578 312.625,139.5781 Q313.5156,140.3984 315.1094,140.3984 Q316.0469,140.3984 316.7031,140.1484 Q317.0938,139.9922 317.5156,139.5547 Q317.7813,139.2891 317.9297,139.2109 Q318.0781,139.1328 318.2813,139.1328 Q318.6094,139.1328 318.8672,139.3906 Q319.125,139.6484 319.125,139.9922 Q319.125,140.3359 318.7813,140.7422 Q318.2813,141.3203 317.4844,141.6484 Q316.4063,142.1016 315.1094,142.1016 Q313.5938,142.1016 312.3906,141.4766 Q311.4063,140.9766 310.7188,139.9063 Q310.0313,138.8359 310.0313,137.5547 L310.0313,136.3984 Q310.0313,135.0703 310.6484,133.9219 Q311.2656,132.7734 312.3594,132.1563 Q313.4531,131.5391 314.6875,131.5391 Q315.4219,131.5391 316.0703,131.7031 Q316.7188,131.8672 317.2656,132.2266 Z " fill="#000000"/><text fill="#000000" font-family="sans-serif" font-size="12" font-style="italic" lengthAdjust="spacing" textLength="56" x="326.5" y="132.457">«general»</text><text fill="#000000" font-family="sans-serif" font-size="14" lengthAdjust="spacing" textLength="41" x="334" y="149.627">Object</text><line style="stroke:#181818;stroke-width:0.5;" x1="300.5" x2="382.5" y1="157.7031" y2="157.7031"/><line style="stroke:#181818;stroke-width:0.5;" x1="300.5" x2="382.5" y1="165.7031" y2="165.7031"/></g><!--class ArrayList--><g id="elem_ArrayList"><rect fill="#F1F1F1" height="48" id="ArrayList" rx="2.5" ry="2.5" style="stroke:#181818;stroke-width:0.5;" width="88" x="297.5" y="337"/><ellipse cx="312.5" cy="353" fill="#ADD1B2" rx="11" ry="11" style="stroke:#181818;stroke-width:1.0;"/><path d="M315.2656,348.875 Q315.4219,348.6563 315.6094,348.5469 Q315.7969,348.4375 316.0156,348.4375 Q316.3906,348.4375 316.625,348.6953 Q316.8594,348.9531 316.8594,349.5625 L316.8594,351.0156 Q316.8594,351.625 316.625,351.8906 Q316.3906,352.1563 316.0156,352.1563 Q315.6719,352.1563 315.4688,351.9531 Q315.2656,351.7656 315.1563,351.25 Q315.1094,350.8906 314.9219,350.7031 Q314.5938,350.3281 313.9844,350.1094 Q313.375,349.8906 312.75,349.8906 Q311.9844,349.8906 311.3516,350.2188 Q310.7188,350.5469 310.2266,351.2969 Q309.7344,352.0469 309.7344,353.0781 L309.7344,354.1719 Q309.7344,355.4063 310.625,356.2266 Q311.5156,357.0469 313.1094,357.0469 Q314.0469,357.0469 314.7031,356.7969 Q315.0938,356.6406 315.5156,356.2031 Q315.7813,355.9375 315.9297,355.8594 Q316.0781,355.7813 316.2813,355.7813 Q316.6094,355.7813 316.8672,356.0391 Q317.125,356.2969 317.125,356.6406 Q317.125,356.9844 316.7813,357.3906 Q316.2813,357.9688 315.4844,358.2969 Q314.4063,358.75 313.1094,358.75 Q311.5938,358.75 310.3906,358.125 Q309.4063,357.625 308.7188,356.5547 Q308.0313,355.4844 308.0313,354.2031 L308.0313,353.0469 Q308.0313,351.7188 308.6484,350.5703 Q309.2656,349.4219 310.3594,348.8047 Q311.4531,348.1875 312.6875,348.1875 Q313.4219,348.1875 314.0703,348.3516 Q314.7188,348.5156 315.2656,348.875 Z " fill="#000000"/><text fill="#000000" font-family="sans-serif" font-size="14" lengthAdjust="spacing" textLength="56" x="326.5" y="358.7285">ArrayList</text><line style="stroke:#181818;stroke-width:0.5;" x1="298.5" x2="384.5" y1="369" y2="369"/><line style="stroke:#181818;stroke-width:0.5;" x1="298.5" x2="384.5" y1="377" y2="377"/></g><g id="elem_GMN5"><path d="M276.5,9.5 L276.5,52.2031 A0,0 0 0 0 276.5,52.2031 L337.5,52.2031 L341.5,114.91 L345.5,52.2031 L406.5,52.2031 A0,0 0 0 0 406.5,52.2031 L406.5,19.5 L396.5,9.5 L276.5,9.5 A0,0 0 0 0 276.5,9.5 " fill="#FEFFDD" style="stroke:#181818;stroke-width:0.5;"/><path d="M396.5,9.5 L396.5,19.5 L406.5,19.5 L396.5,9.5 " fill="#FEFFDD" style="stroke:#181818;stroke-width:0.5;"/><text fill="#000000" font-family="sans-serif" font-size="13" lengthAdjust="spacing" textLength="109" x="282.5" y="27.9951">In java, every class</text><text fill="#000000" font-family="sans-serif" font-size="13" lengthAdjust="spacing" textLength="100" x="282.5" y="44.3467">extends this one.</text></g><g id="elem_N1"><path d="M441.5,18 L441.5,44.3516 L585.5,44.3516 L585.5,28 L575.5,18 L441.5,18 " fill="#FEFFDD" style="stroke:#181818;stroke-width:0.5;"/><path d="M575.5,18 L575.5,28 L585.5,28 L575.5,18 " fill="#FEFFDD" style="stroke:#181818;stroke-width:1.0;"/><text fill="#000000" font-family="sans-serif" font-size="13" lengthAdjust="spacing" textLength="123" x="447.5" y="36.4951">This is a floating note</text></g><g id="elem_N2"><path d="M330.5,234 L330.5,276.7031 L482.5,276.7031 L482.5,244 L472.5,234 L330.5,234 " fill="#FEFFDD" style="stroke:#181818;stroke-width:0.5;"/><path d="M472.5,234 L472.5,244 L482.5,244 L472.5,234 " fill="#FEFFDD" style="stroke:#181818;stroke-width:1.0;"/><text fill="#000000" font-family="sans-serif" font-size="13" lengthAdjust="spacing" textLength="131" x="336.5" y="252.4951">This note is connected</text><text fill="#000000" font-family="sans-serif" font-size="13" lengthAdjust="spacing" textLength="105" x="336.5" y="268.8467">to several objects.</text></g><!--class Foo--><g id="elem_Foo"><rect codeLine="11" fill="#F1F1F1" height="48" id="Foo" rx="2.5" ry="2.5" style="stroke:#181818;stroke-width:0.5;" width="57" x="184" y="7"/><ellipse cx="199" cy="23" fill="#ADD1B2" rx="11" ry="11" style="stroke:#181818;stroke-width:1.0;"/><path d="M201.7656,18.875 Q201.9219,18.6563 202.1094,18.5469 Q202.2969,18.4375 202.5156,18.4375 Q202.8906,18.4375 203.125,18.6953 Q203.3594,18.9531 203.3594,19.5625 L203.3594,21.0156 Q203.3594,21.625 203.125,21.8906 Q202.8906,22.1563 202.5156,22.1563 Q202.1719,22.1563 201.9688,21.9531 Q201.7656,21.7656 201.6563,21.25 Q201.6094,20.8906 201.4219,20.7031 Q201.0938,20.3281 200.4844,20.1094 Q199.875,19.8906 199.25,19.8906 Q198.4844,19.8906 197.8516,20.2188 Q197.2188,20.5469 196.7266,21.2969 Q196.2344,22.0469 196.2344,23.0781 L196.2344,24.1719 Q196.2344,25.4063 197.125,26.2266 Q198.0156,27.0469 199.6094,27.0469 Q200.5469,27.0469 201.2031,26.7969 Q201.5938,26.6406 202.0156,26.2031 Q202.2813,25.9375 202.4297,25.8594 Q202.5781,25.7813 202.7813,25.7813 Q203.1094,25.7813 203.3672,26.0391 Q203.625,26.2969 203.625,26.6406 Q203.625,26.9844 203.2813,27.3906 Q202.7813,27.9688 201.9844,28.2969 Q200.9063,28.75 199.6094,28.75 Q198.0938,28.75 196.8906,28.125 Q195.9063,27.625 195.2188,26.5547 Q194.5313,25.4844 194.5313,24.2031 L194.5313,23.0469 Q194.5313,21.7188 195.1484,20.5703 Q195.7656,19.4219 196.8594,18.8047 Q197.9531,18.1875 199.1875,18.1875 Q199.9219,18.1875 200.5703,18.3516 Q201.2188,18.5156 201.7656,18.875 Z " fill="#000000"/><text fill="#000000" font-family="sans-serif" font-size="14" lengthAdjust="spacing" textLength="25" x="213" y="28.7285">Foo</text><line style="stroke:#181818;stroke-width:0.5;" x1="185" x2="240" y1="39" y2="39"/><line style="stroke:#181818;stroke-width:0.5;" x1="185" x2="240" y1="47" y2="47"/></g><g id="elem_GMN13"><path d="M6,18 L6,44.3516 A0,0 0 0 0 6,44.3516 L149,44.3516 A0,0 0 0 0 149,44.3516 L149,36 L183.83,31 L149,28 L149,28 L139,18 L6,18 A0,0 0 0 0 6,18 " fill="#FEFFDD" style="stroke:#181818;stroke-width:0.5;"/><path d="M139,18 L139,28 L149,28 L139,18 " fill="#FEFFDD" style="stroke:#181818;stroke-width:0.5;"/><text fill="#000000" font-family="sans-serif" font-size="13" lengthAdjust="spacing" textLength="122" x="12" y="36.4951">On last defined class</text></g><!--reverse link Object to ArrayList--><g id="link_Object_ArrayList"><path codeLine="2" d="M322.55,193.33 C314.94,218.18 308.92,249.11 313.5,277 C316.92,297.86 324.88,320.54 331.45,336.91 " fill="none" id="Object-backto-ArrayList" style="stroke:#181818;stroke-width:1.0;"/><polygon fill="none" points="316.04,190.75,329.13,174.08,329.29,195.27,316.04,190.75" style="stroke:#181818;stroke-width:1.0;"/></g><!--link Object to N2--><g id="link_Object_N2"><path codeLine="8" d="M358.58,174.14 C369.79,192.94 384.18,217.07 394.26,233.97 " fill="none" id="Object-N2" style="stroke:#181818;stroke-width:1.0;stroke-dasharray:7.0,7.0;"/></g><!--link N2 to ArrayList--><g id="link_N2_ArrayList"><path codeLine="9" d="M393.35,277.44 C382.51,294.69 367.17,319.12 355.99,336.93 " fill="none" id="N2-ArrayList" style="stroke:#181818;stroke-width:1.0;stroke-dasharray:7.0,7.0;"/></g><!--SRC=[JOx12eD034JlViNWkGhrA2BqKYWKlVJePQlHAf8KDqY5VdntjO8GI7QIsNdrQAn5-HoeLcGPEcAQp8Wy3tRn6qKHBjDabdjlDGXObA3oXhIxCSMDCPZPd40pJGjg_st5z57Yna9VlOKmnNzt-F22AuDs5ACzT_2B4CQYE1-Frj7rMfXT53KLgy3w68SfQxwDDsEoCyUnVnI97mxaAnMk8bl0IAscA1bELZJKzapDXXxy0000]--></g></svg>