<?xml version='1.0' encoding='utf-8'?>
<svg xmlns="http://www.w3.org/2000/svg" width="6.35mm" height="6.35mm" viewBox="0 0 6.35mm 6.35mm" fill="none">
<g transform="scale(1.000000)"><circle cx="12" cy="12" r="7" stroke="black" stroke-width="1.5" />
<path d="M19.6626 5C21.1178 6.77173 22 9.09352 22 11.6353C22 14.5427 20.8458 17.1622 19 19" stroke="white" stroke-width="1.5" stroke-linecap="round" />
<path d="M5 19C3.15281 17.1944 2 14.6352 2 11.7973C2 9.16563 2.99139 6.77366 4.60856 5" stroke="white" stroke-width="1.5" stroke-linecap="round" />
<path d="M7.5 15L9.03774 9.86842L9.16497 9.07895L9.95384 9L11.7642 15H11.0372L10.4991 13.2237H8.69965L8.1689 15H7.5ZM9.59757 9.63158L9.4667 10.6579L8.87778 12.6316H10.321L9.72845 10.6579L9.59757 9.63158Z" fill="white" />
<path d="M13.8026 10.4724V11.5066H14.2025C14.36 11.5066 14.5127 11.4882 14.6605 11.4513C14.8084 11.4118 14.9392 11.3513 15.0531 11.2697C15.1695 11.1855 15.2628 11.0776 15.3331 10.9461C15.4033 10.8145 15.4385 10.6553 15.4385 10.4684C15.4385 10.2947 15.4046 10.15 15.3367 10.0342C15.2688 9.91842 15.1792 9.82632 15.0677 9.75789C14.9586 9.68947 14.835 9.64211 14.6969 9.61579C14.5587 9.58684 14.4206 9.57237 14.2825 9.57237C14.2413 9.57237 14.1964 9.57368 14.148 9.57632C14.0995 9.57895 14.0498 9.58421 13.9989 9.59211C13.9504 9.59737 13.902 9.60395 13.8535 9.61184C13.8074 9.61974 13.7662 9.62763 13.7299 9.63553L13.8026 10.4724ZM13.0392 15V9.90789L12.9301 9.11842C13.0028 9.10789 13.0864 9.09737 13.181 9.08684C13.2779 9.07632 13.3773 9.06842 13.4791 9.06316C13.5808 9.05526 13.6814 9.05 13.7808 9.04737C13.8802 9.04211 13.9686 9.03947 14.0462 9.03947C14.3152 9.03947 14.5745 9.05921 14.8241 9.09868C15.0762 9.13553 15.2991 9.20395 15.493 9.30395C15.6869 9.40395 15.842 9.54211 15.9583 9.71842C16.0747 9.89211 16.1328 10.1145 16.1328 10.3855C16.1328 10.6724 16.0686 10.9197 15.9402 11.1276C15.8141 11.3355 15.6469 11.4947 15.4385 11.6053L14.8787 11.7789L15.413 11.8342C15.5609 11.8816 15.7002 11.9434 15.8311 12.0197C15.9644 12.0934 16.0807 12.1842 16.1801 12.2921C16.2795 12.4 16.357 12.5276 16.4128 12.675C16.4709 12.8224 16.5 12.9921 16.5 13.1842C16.5 13.4079 16.4721 13.6079 16.4164 13.7842C16.3606 13.9605 16.2855 14.1158 16.191 14.25C16.0965 14.3842 15.985 14.5 15.8565 14.5974C15.7281 14.6921 15.59 14.7697 15.4421 14.8303C15.2967 14.8882 15.1452 14.9316 14.9877 14.9605C14.8326 14.9868 14.6799 15 14.5297 15H13.0392ZM13.8026 14.3684H14.3115C14.5515 14.3684 14.7623 14.35 14.9441 14.3132C15.1259 14.2737 15.2785 14.2105 15.4021 14.1237C15.5257 14.0342 15.6178 13.9171 15.6784 13.7724C15.7414 13.625 15.7729 13.4421 15.7729 13.2237C15.7729 13.0263 15.7414 12.8579 15.6784 12.7184C15.6154 12.5789 15.5257 12.4645 15.4094 12.375C15.2955 12.2855 15.1574 12.2211 14.995 12.1816C14.8326 12.1395 14.6533 12.1184 14.457 12.1184H13.8026V14.3684Z" fill="white" />
</g></svg>