<svg xmlns="http://www.w3.org/2000/svg" width="512" height="512" viewBox="0 0 512 512"><path fill="#bd3d44" d="M0 0h512v512H0"/><path stroke="#fff" stroke-width="40" d="M0 58h512M0 137h512M0 216h512M0 295h512M0 374h512M0 453h512"/><path fill="#192f5d" d="M0 0h390v275H0z"/><marker id="SVGEacbMe2y" markerHeight="30" markerWidth="30"><path fill="#fff" d="m15 0l9.3 28.6L0 11h30L5.7 28.6"/></marker><path fill="none" marker-mid="url(#SVGEacbMe2y)" d="m0 0l18 11h65h65h65h65h66L51 39h65h65h65h65L18 66h65h65h65h65h66L51 94h65h65h65h65L18 121h65h65h65h65h66L51 149h65h65h65h65L18 177h65h65h65h65h66L51 205h65h65h65h65L18 232h65h65h65h65h66z"/></svg>