<?xml version="1.0" encoding="utf-8"?>
<!-- Generator: Adobe Illustrator 26.1.0, SVG Export Plug-In . SVG Version: 6.00 Build 0)  -->
<svg version="1.1" id="Layer_1" xmlns="http://www.w3.org/2000/svg" xmlns:xlink="http://www.w3.org/1999/xlink" x="0px" y="0px"
     viewBox="0 0 150 150" style="enable-background:new 0 0 150 150;" xml:space="preserve">
<style type="text/css">
	.st0{fill:#FFFFFF;}
	.st1{fill:#015D8C;}
	.st2{fill:#EF3E33;}
	.st3{fill:#00529B;}
	.st4{fill-rule:evenodd;clip-rule:evenodd;}
	.st5{fill-rule:evenodd;clip-rule:evenodd;fill:#FFFFFF;}
	.st6{fill-rule:evenodd;clip-rule:evenodd;fill:#015D8C;}
	.st7{fill-rule:evenodd;clip-rule:evenodd;fill:#231F20;}
	.st8{fill-rule:evenodd;clip-rule:evenodd;fill:#006A44;}
</style>
<g>
		<ellipse transform="matrix(0.2936 -0.9559 0.9559 0.2936 -17.85 124.5753)" class="st2" cx="75.36" cy="74.36" rx="53.67" ry="53.67"/>
	<path class="st1" d="M75.36,130.09c-30.73,0-55.72-25-55.72-55.72c0-30.72,25-55.72,55.72-55.72c30.72,0,55.72,25,55.72,55.72
		C131.08,105.09,106.09,130.09,75.36,130.09L75.36,130.09z M75.36,19.74c-30.12,0-54.62,24.5-54.62,54.62
		c0,30.12,24.5,54.62,54.62,54.62c30.12,0,54.62-24.5,54.62-54.62C129.98,44.24,105.48,19.74,75.36,19.74L75.36,19.74z"/>
	</g>
</svg>